<?xml version="1.0" encoding="utf-8"?>
<!-- Generator: Adobe Illustrator 15.0.0, SVG Export Plug-In . SVG Version: 6.00 Build 0)  -->
<!DOCTYPE svg PUBLIC "-//W3C//DTD SVG 1.1//EN" "http://www.w3.org/Graphics/SVG/1.1/DTD/svg11.dtd">
<svg version="1.1" id="Слой_1" xmlns="http://www.w3.org/2000/svg" xmlns:xlink="http://www.w3.org/1999/xlink" x="0px" y="0px"
	 width="800px" height="800px" viewBox="0 0 800 800" enable-background="new 0 0 800 800" xml:space="preserve">
<g>
	<defs>
		<rect id="SVGID_1_" width="800" height="800"/>
	</defs>
	<clipPath id="SVGID_2_">
		<use xlink:href="#SVGID_1_"  overflow="visible"/>
	</clipPath>
	<linearGradient id="SVGID_3_" gradientUnits="userSpaceOnUse" x1="224.6514" y1="-81.7666" x2="575.3489" y2="881.767">
		<stop  offset="0" style="stop-color:#B76E79"/>
		<stop  offset="1" style="stop-color:#C5AE87"/>
	</linearGradient>
	<rect clip-path="url(#SVGID_2_)" fill="url(#SVGID_3_)" width="800" height="800"/>
	<g clip-path="url(#SVGID_2_)">
		<defs>
			<rect id="SVGID_4_" width="800" height="800"/>
		</defs>
		<clipPath id="SVGID_5_">
			<use xlink:href="#SVGID_4_"  overflow="visible"/>
		</clipPath>
		<g opacity="0.7" clip-path="url(#SVGID_5_)">
			<g>
				<defs>
					<rect id="SVGID_6_" x="-25.884" width="836.42" height="811.32"/>
				</defs>
				<clipPath id="SVGID_7_">
					<use xlink:href="#SVGID_6_"  overflow="visible"/>
				</clipPath>
				<g clip-path="url(#SVGID_7_)">
					<defs>
						<rect id="SVGID_8_" x="-1" width="800" height="800"/>
					</defs>
					<clipPath id="SVGID_9_">
						<use xlink:href="#SVGID_8_"  overflow="visible"/>
					</clipPath>
					<polygon clip-path="url(#SVGID_9_)" fill="none" stroke="#FFFFFF" stroke-width="0.5" stroke-miterlimit="10" points="
						660.228,734.932 651.233,657.549 731.257,735.775 					"/>
					<polygon clip-path="url(#SVGID_9_)" fill="none" stroke="#FFFFFF" stroke-width="0.5" stroke-miterlimit="10" points="
						651.233,657.549 675.723,591.367 731.256,735.775 					"/>
					<polygon clip-path="url(#SVGID_9_)" fill="none" stroke="#FFFFFF" stroke-width="0.5" stroke-miterlimit="10" points="
						346.907,811.07 287.416,768.682 263.728,811.07 					"/>
					<polygon clip-path="url(#SVGID_9_)" fill="none" stroke="#FFFFFF" stroke-width="0.5" stroke-miterlimit="10" points="
						354.127,811.07 374.691,752.646 287.416,768.682 346.906,811.07 					"/>
					<polygon clip-path="url(#SVGID_9_)" fill="none" stroke="#FFFFFF" stroke-width="0.5" stroke-miterlimit="10" points="
						535.442,776.758 579.183,692.9 611.094,758.484 					"/>
					<polygon clip-path="url(#SVGID_9_)" fill="none" stroke="#FFFFFF" stroke-width="0.5" stroke-miterlimit="10" points="
						660.228,734.932 651.233,657.549 611.094,758.484 					"/>
					<polygon clip-path="url(#SVGID_9_)" fill="none" stroke="#FFFFFF" stroke-width="0.5" stroke-miterlimit="10" points="
						579.183,692.9 651.233,657.549 611.094,758.484 					"/>
					<polygon clip-path="url(#SVGID_9_)" fill="none" stroke="#FFFFFF" stroke-width="0.5" stroke-miterlimit="10" points="
						785.936,501.672 744.558,384.865 808.353,452.369 					"/>
					<polygon clip-path="url(#SVGID_9_)" fill="none" stroke="#FFFFFF" stroke-width="0.5" stroke-miterlimit="10" points="
						810.07,385.82 744.558,384.865 808.353,452.369 810.07,447.439 					"/>
					<polygon clip-path="url(#SVGID_9_)" fill="none" stroke="#FFFFFF" stroke-width="0.5" stroke-miterlimit="10" points="
						374.691,752.646 376.447,684.521 419.379,695.15 					"/>
					<polygon clip-path="url(#SVGID_9_)" fill="none" stroke="#FFFFFF" stroke-width="0.5" stroke-miterlimit="10" points="
						376.448,684.521 419.379,695.15 421.525,640.109 					"/>
					<polygon clip-path="url(#SVGID_9_)" fill="none" stroke="#FFFFFF" stroke-width="0.5" stroke-miterlimit="10" points="
						535.442,776.758 579.183,692.9 518.419,668.387 					"/>
					<polygon clip-path="url(#SVGID_9_)" fill="none" stroke="#FFFFFF" stroke-width="0.5" stroke-miterlimit="10" points="
						541.919,811.07 535.441,776.757 490.303,811.07 					"/>
					<polygon clip-path="url(#SVGID_9_)" fill="none" stroke="#FFFFFF" stroke-width="0.5" stroke-miterlimit="10" points="
						785.936,501.672 744.558,384.865 705.934,487.246 					"/>
					<polygon clip-path="url(#SVGID_9_)" fill="none" stroke="#FFFFFF" stroke-width="0.5" stroke-miterlimit="10" points="
						518.419,668.387 579.183,692.9 577.696,598.143 					"/>
					<polygon clip-path="url(#SVGID_9_)" fill="none" stroke="#FFFFFF" stroke-width="0.5" stroke-miterlimit="10" points="
						579.183,692.9 651.233,657.549 577.696,598.143 					"/>
					<polygon clip-path="url(#SVGID_9_)" fill="none" stroke="#FFFFFF" stroke-width="0.5" stroke-miterlimit="10" points="
						651.233,657.549 675.723,591.367 577.696,598.143 					"/>
					<polygon clip-path="url(#SVGID_9_)" fill="none" stroke="#FFFFFF" stroke-width="0.5" stroke-miterlimit="10" points="
						508.667,565 579.183,509.667 577.696,598.143 					"/>
					<polygon clip-path="url(#SVGID_9_)" fill="none" stroke="#FFFFFF" stroke-width="0.5" stroke-miterlimit="10" points="
						360.267,811.07 462.85,755.459 374.691,752.646 354.127,811.07 					"/>
					<polygon clip-path="url(#SVGID_9_)" fill="none" stroke="#FFFFFF" stroke-width="0.5" stroke-miterlimit="10" points="
						475.409,811.07 462.85,755.459 360.267,811.07 					"/>
					<polygon clip-path="url(#SVGID_9_)" fill="none" stroke="#FFFFFF" stroke-width="0.5" stroke-miterlimit="10" points="
						374.691,752.646 419.379,695.15 462.85,755.46 					"/>
					<polygon clip-path="url(#SVGID_9_)" fill="none" stroke="#FFFFFF" stroke-width="0.5" stroke-miterlimit="10" points="
						490.303,811.07 535.442,776.757 462.85,755.459 475.408,811.07 					"/>
					<polygon clip-path="url(#SVGID_9_)" fill="none" stroke="#FFFFFF" stroke-width="0.5" stroke-miterlimit="10" points="
						535.442,776.758 518.419,668.387 462.85,755.459 					"/>
					<polygon clip-path="url(#SVGID_9_)" fill="none" stroke="#FFFFFF" stroke-width="0.5" stroke-miterlimit="10" points="
						248.632,811.07 165.818,721.535 179.334,811.07 					"/>
					<polygon clip-path="url(#SVGID_9_)" fill="none" stroke="#FFFFFF" stroke-width="0.5" stroke-miterlimit="10" points="
						263.728,811.07 287.415,768.682 165.818,721.535 248.632,811.07 					"/>
					<polygon clip-path="url(#SVGID_9_)" fill="none" stroke="#FFFFFF" stroke-width="0.5" stroke-miterlimit="10" points="
						810.07,285.563 809.938,284.941 744.558,384.866 810.07,385.819 					"/>
					<polygon clip-path="url(#SVGID_9_)" fill="none" stroke="#FFFFFF" stroke-width="0.5" stroke-miterlimit="10" points="
						287.416,768.682 374.691,752.646 307.044,676.16 					"/>
					<polygon clip-path="url(#SVGID_9_)" fill="none" stroke="#FFFFFF" stroke-width="0.5" stroke-miterlimit="10" points="
						374.691,752.646 376.447,684.521 307.044,676.16 					"/>
					<polygon clip-path="url(#SVGID_9_)" fill="none" stroke="#FFFFFF" stroke-width="0.5" stroke-miterlimit="10" points="
						462.85,755.459 419.379,695.15 484.282,625.595 					"/>
					<polygon clip-path="url(#SVGID_9_)" fill="none" stroke="#FFFFFF" stroke-width="0.5" stroke-miterlimit="10" points="
						462.85,755.459 518.419,668.387 484.282,625.595 					"/>
					<polygon clip-path="url(#SVGID_9_)" fill="none" stroke="#FFFFFF" stroke-width="0.5" stroke-miterlimit="10" points="
						419.379,695.15 421.525,640.109 484.282,625.595 					"/>
					<polygon clip-path="url(#SVGID_9_)" fill="none" stroke="#FFFFFF" stroke-width="0.5" stroke-miterlimit="10" points="
						421.525,640.109 406.168,598.99 484.282,625.595 					"/>
					<polygon clip-path="url(#SVGID_9_)" fill="none" stroke="#FFFFFF" stroke-width="0.5" stroke-miterlimit="10" points="
						406.168,598.99 508.667,565 484.282,625.594 					"/>
					<polygon clip-path="url(#SVGID_9_)" fill="none" stroke="#FFFFFF" stroke-width="0.5" stroke-miterlimit="10" points="
						518.419,668.387 577.696,598.143 484.282,625.595 					"/>
					<polygon clip-path="url(#SVGID_9_)" fill="none" stroke="#FFFFFF" stroke-width="0.5" stroke-miterlimit="10" points="
						508.667,565 577.696,598.143 484.282,625.595 					"/>
					<polygon clip-path="url(#SVGID_9_)" fill="none" stroke="#FFFFFF" stroke-width="0.5" stroke-miterlimit="10" points="
						577.696,598.143 675.723,591.367 648.764,539.666 					"/>
					<polygon clip-path="url(#SVGID_9_)" fill="none" stroke="#FFFFFF" stroke-width="0.5" stroke-miterlimit="10" points="
						577.696,598.143 579.183,509.667 648.764,539.666 					"/>
					<polygon clip-path="url(#SVGID_9_)" fill="none" stroke="#FFFFFF" stroke-width="0.5" stroke-miterlimit="10" points="
						675.723,591.367 705.934,487.246 648.764,539.666 					"/>
					<polygon clip-path="url(#SVGID_9_)" fill="none" stroke="#FFFFFF" stroke-width="0.5" stroke-miterlimit="10" points="
						287.416,768.682 307.044,676.16 203.527,648.566 					"/>
					<polygon clip-path="url(#SVGID_9_)" fill="none" stroke="#FFFFFF" stroke-width="0.5" stroke-miterlimit="10" points="
						165.818,721.535 287.416,768.682 203.528,648.566 					"/>
					<polygon clip-path="url(#SVGID_9_)" fill="none" stroke="#FFFFFF" stroke-width="0.5" stroke-miterlimit="10" points="
						614.393,261.293 744.558,384.866 733.161,278.414 					"/>
					<polygon clip-path="url(#SVGID_9_)" fill="none" stroke="#FFFFFF" stroke-width="0.5" stroke-miterlimit="10" points="
						744.558,384.865 809.938,284.942 733.161,278.413 					"/>
					<polygon clip-path="url(#SVGID_9_)" fill="none" stroke="#FFFFFF" stroke-width="0.5" stroke-miterlimit="10" points="
						809.938,284.942 731.443,195.66 733.161,278.414 					"/>
					<polygon clip-path="url(#SVGID_9_)" fill="none" stroke="#FFFFFF" stroke-width="0.5" stroke-miterlimit="10" points="
						731.443,195.66 614.393,261.293 733.161,278.413 					"/>
					<polygon clip-path="url(#SVGID_9_)" fill="none" stroke="#FFFFFF" stroke-width="0.5" stroke-miterlimit="10" points="
						810.07,210.09 731.443,195.66 809.938,284.942 810.07,284.843 					"/>
					<polygon clip-path="url(#SVGID_9_)" fill="none" stroke="#FFFFFF" stroke-width="0.5" stroke-miterlimit="10" points="
						579.183,509.667 648.764,539.666 687.992,403.625 					"/>
					<polygon clip-path="url(#SVGID_9_)" fill="none" stroke="#FFFFFF" stroke-width="0.5" stroke-miterlimit="10" points="
						579.183,509.667 576,425 687.992,403.625 					"/>
					<polygon clip-path="url(#SVGID_9_)" fill="none" stroke="#FFFFFF" stroke-width="0.5" stroke-miterlimit="10" points="
						648.764,539.666 705.934,487.246 687.992,403.625 					"/>
					<polygon clip-path="url(#SVGID_9_)" fill="none" stroke="#FFFFFF" stroke-width="0.5" stroke-miterlimit="10" points="
						615,261.87 744.558,384.866 687.992,403.625 					"/>
					<polygon clip-path="url(#SVGID_9_)" fill="none" stroke="#FFFFFF" stroke-width="0.5" stroke-miterlimit="10" points="
						705.934,487.246 744.558,384.865 687.992,403.625 					"/>
					<polygon clip-path="url(#SVGID_9_)" fill="none" stroke="#FFFFFF" stroke-width="0.5" stroke-miterlimit="10" points="
						810.07,167.344 737.403,115.327 731.443,195.66 810.07,210.09 					"/>
					<polygon clip-path="url(#SVGID_9_)" fill="none" stroke="#FFFFFF" stroke-width="0.5" stroke-miterlimit="10" points="
						810.07,811.07 810.07,790.784 806.489,783.199 749.058,811.07 					"/>
					<polygon clip-path="url(#SVGID_9_)" fill="none" stroke="#FFFFFF" stroke-width="0.5" stroke-miterlimit="10" points="
						749.058,811.07 806.489,783.199 731.257,735.775 733.762,811.07 					"/>
					<polygon clip-path="url(#SVGID_9_)" fill="none" stroke="#FFFFFF" stroke-width="0.5" stroke-miterlimit="10" points="
						731.257,735.775 806.488,783.199 789.101,619.816 					"/>
					<polygon clip-path="url(#SVGID_9_)" fill="none" stroke="#FFFFFF" stroke-width="0.5" stroke-miterlimit="10" points="
						731.257,735.775 675.723,591.367 789.101,619.816 					"/>
					<polygon clip-path="url(#SVGID_9_)" fill="none" stroke="#FFFFFF" stroke-width="0.5" stroke-miterlimit="10" points="
						810.07,645.946 789.101,619.816 806.489,783.199 810.07,780.809 					"/>
					<polygon clip-path="url(#SVGID_9_)" fill="none" stroke="#FFFFFF" stroke-width="0.5" stroke-miterlimit="10" points="
						675.723,591.367 705.934,487.246 789.101,619.816 					"/>
					<polygon clip-path="url(#SVGID_9_)" fill="none" stroke="#FFFFFF" stroke-width="0.5" stroke-miterlimit="10" points="
						810.07,631.587 789.101,619.815 810.07,645.946 					"/>
					<polygon clip-path="url(#SVGID_9_)" fill="none" stroke="#FFFFFF" stroke-width="0.5" stroke-miterlimit="10" points="
						810.07,615.178 789.101,619.816 810.07,631.587 					"/>
					<polygon clip-path="url(#SVGID_9_)" fill="none" stroke="#FFFFFF" stroke-width="0.5" stroke-miterlimit="10" points="
						705.934,487.246 785.936,501.672 789.101,619.816 					"/>
					<polygon clip-path="url(#SVGID_9_)" fill="none" stroke="#FFFFFF" stroke-width="0.5" stroke-miterlimit="10" points="
						785.936,501.672 808.353,452.369 789.101,619.817 					"/>
					<polygon clip-path="url(#SVGID_9_)" fill="none" stroke="#FFFFFF" stroke-width="0.5" stroke-miterlimit="10" points="
						810.07,454.946 808.353,452.369 789.101,619.816 810.07,615.178 					"/>
					<polygon clip-path="url(#SVGID_9_)" fill="none" stroke="#FFFFFF" stroke-width="0.5" stroke-miterlimit="10" points="
						635.198,811.07 654.497,805.412 535.442,776.757 541.919,811.07 					"/>
					<polygon clip-path="url(#SVGID_9_)" fill="none" stroke="#FFFFFF" stroke-width="0.5" stroke-miterlimit="10" points="
						535.442,776.758 611.094,758.484 654.497,805.412 					"/>
					<polygon clip-path="url(#SVGID_9_)" fill="none" stroke="#FFFFFF" stroke-width="0.5" stroke-miterlimit="10" points="
						611.094,758.484 660.228,734.932 654.497,805.412 					"/>
					<polygon clip-path="url(#SVGID_9_)" fill="none" stroke="#FFFFFF" stroke-width="0.5" stroke-miterlimit="10" points="
						660.228,734.932 731.257,735.775 654.497,805.411 					"/>
					<polygon clip-path="url(#SVGID_9_)" fill="none" stroke="#FFFFFF" stroke-width="0.5" stroke-miterlimit="10" points="
						733.762,811.07 731.257,735.775 654.497,805.412 689.201,811.07 					"/>
					<polygon clip-path="url(#SVGID_9_)" fill="none" stroke="#FFFFFF" stroke-width="0.5" stroke-miterlimit="10" points="
						136.268,811.07 61.184,782.943 87.011,811.07 					"/>
					<polyline clip-path="url(#SVGID_9_)" fill="none" stroke="#FFFFFF" stroke-width="0.5" stroke-miterlimit="10" points="
						165.818,721.535 61.184,782.943 38.667,710.334 -25.333,777.074 61.184,782.943 					"/>
					
						<line clip-path="url(#SVGID_9_)" fill="none" stroke="#FFFFFF" stroke-width="0.5" stroke-miterlimit="10" x1="38.667" y1="710.334" x2="-5.333" y2="643.667"/>
				</g>
			</g>
		</g>
		<path clip-path="url(#SVGID_5_)" fill="#FFFFFF" d="M581.136,426.981c0,1.915-1.554,3.469-3.469,3.469
			c-1.916,0-3.47-1.554-3.47-3.469c0-1.916,1.554-3.47,3.47-3.47C579.582,423.512,581.136,425.065,581.136,426.981"/>
		<path clip-path="url(#SVGID_5_)" fill="#FFFFFF" d="M515.136,563.981c0,1.915-1.554,3.469-3.469,3.469
			c-1.916,0-3.47-1.554-3.47-3.469c0-1.916,1.554-3.47,3.47-3.47C513.582,560.512,515.136,562.065,515.136,563.981"/>
		<path clip-path="url(#SVGID_5_)" fill="#FFFFFF" d="M653.136,657.981c0,1.915-1.554,3.469-3.469,3.469
			c-1.916,0-3.47-1.554-3.47-3.469c0-1.916,1.554-3.47,3.47-3.47C651.582,654.512,653.136,656.065,653.136,657.981"/>
		<path clip-path="url(#SVGID_5_)" fill="#FFFFFF" d="M423.136,695.981c0,1.915-1.554,3.469-3.469,3.469
			c-1.916,0-3.47-1.554-3.47-3.469c0-1.916,1.554-3.47,3.47-3.47C421.582,692.512,423.136,694.065,423.136,695.981"/>
		<path clip-path="url(#SVGID_5_)" fill="#FFFFFF" d="M171.136,721.981c0,1.915-1.554,3.469-3.469,3.469
			c-1.916,0-3.469-1.554-3.469-3.469c0-1.916,1.553-3.47,3.469-3.47C169.582,718.512,171.136,720.065,171.136,721.981"/>
		<path clip-path="url(#SVGID_5_)" fill="#FFFFFF" d="M44.136,710.981c0,1.915-1.554,3.469-3.469,3.469
			c-1.916,0-3.469-1.554-3.469-3.469c0-1.916,1.553-3.47,3.469-3.47C42.582,707.512,44.136,709.065,44.136,710.981"/>
		<path clip-path="url(#SVGID_5_)" fill="#FFFFFF" d="M737.136,194.981c0,1.915-1.554,3.469-3.469,3.469
			c-1.916,0-3.47-1.554-3.47-3.469c0-1.916,1.554-3.47,3.47-3.47C735.582,191.511,737.136,193.065,737.136,194.981"/>
		<path clip-path="url(#SVGID_5_)" fill="#FFFFFF" d="M523.136,474.981c0,1.915-1.554,3.469-3.469,3.469
			c-1.916,0-3.47-1.554-3.47-3.469c0-1.916,1.554-3.47,3.47-3.47C521.582,471.512,523.136,473.065,523.136,474.981"/>
		<path clip-path="url(#SVGID_5_)" fill="#FFFFFF" d="M208.136,649.981c0,1.915-1.554,3.469-3.469,3.469
			c-1.916,0-3.469-1.554-3.469-3.469c0-1.916,1.553-3.47,3.469-3.47C206.582,646.512,208.136,648.065,208.136,649.981"/>
		<path clip-path="url(#SVGID_5_)" fill="#FFFFFF" d="M176.136,440.981c0,1.915-1.554,3.469-3.469,3.469
			c-1.916,0-3.469-1.554-3.469-3.469c0-1.916,1.553-3.47,3.469-3.47C174.582,437.512,176.136,439.065,176.136,440.981"/>
		<path clip-path="url(#SVGID_5_)" fill="#FFFFFF" d="M106.136,597.981c0,1.915-1.554,3.469-3.469,3.469
			c-1.916,0-3.469-1.554-3.469-3.469c0-1.916,1.553-3.47,3.469-3.47C104.582,594.512,106.136,596.065,106.136,597.981"/>
		<path clip-path="url(#SVGID_5_)" fill="#FFFFFF" d="M239.136,577.981c0,1.915-1.554,3.469-3.469,3.469
			c-1.916,0-3.469-1.554-3.469-3.469c0-1.916,1.553-3.47,3.469-3.47C237.582,574.512,239.136,576.065,239.136,577.981"/>
		<path clip-path="url(#SVGID_5_)" fill="#FFFFFF" d="M345.136,575.981c0,1.915-1.554,3.469-3.469,3.469
			c-1.916,0-3.469-1.554-3.469-3.469c0-1.916,1.553-3.47,3.469-3.47C343.582,572.512,345.136,574.065,345.136,575.981"/>
		<path clip-path="url(#SVGID_5_)" fill="#FFFFFF" d="M297.136,471.981c0,1.915-1.554,3.469-3.469,3.469
			c-1.916,0-3.469-1.554-3.469-3.469c0-1.916,1.553-3.47,3.469-3.47C295.582,468.512,297.136,470.065,297.136,471.981"/>
		<path clip-path="url(#SVGID_5_)" fill="#FFFFFF" d="M366.136,481.981c0,1.915-1.554,3.469-3.469,3.469
			c-1.916,0-3.469-1.554-3.469-3.469c0-1.916,1.553-3.47,3.469-3.47C364.582,478.512,366.136,480.065,366.136,481.981"/>
		<path clip-path="url(#SVGID_5_)" fill="#FFFFFF" d="M490.136,407.981c0,1.915-1.554,3.469-3.469,3.469
			c-1.916,0-3.47-1.554-3.47-3.469c0-1.916,1.554-3.47,3.47-3.47C488.582,404.512,490.136,406.065,490.136,407.981"/>
		<path clip-path="url(#SVGID_5_)" fill="#FFFFFF" d="M692.136,402.981c0,1.915-1.554,3.469-3.469,3.469
			c-1.916,0-3.47-1.554-3.47-3.469c0-1.916,1.554-3.47,3.47-3.47C690.582,399.511,692.136,401.065,692.136,402.981"/>
		<path clip-path="url(#SVGID_5_)" fill="#FFFFFF" d="M749.136,384.981c0,1.915-1.554,3.469-3.469,3.469
			c-1.916,0-3.47-1.554-3.47-3.469c0-1.916,1.554-3.47,3.47-3.47C747.582,381.511,749.136,383.065,749.136,384.981"/>
		<path clip-path="url(#SVGID_5_)" fill="#FFFFFF" d="M569.136,310.981c0,1.915-1.554,3.469-3.469,3.469
			c-1.916,0-3.47-1.554-3.47-3.469c0-1.916,1.554-3.47,3.47-3.47C567.582,307.511,569.136,309.065,569.136,310.981"/>
		<polyline clip-path="url(#SVGID_5_)" fill="none" stroke="#FFFFFF" stroke-width="0.5" stroke-miterlimit="10" points="
			510.978,563.972 519.211,475 362.667,482.278 486.399,408.027 		"/>
		<polyline clip-path="url(#SVGID_5_)" fill="none" stroke="#FFFFFF" stroke-width="0.5" stroke-miterlimit="10" points="
			205.355,650.502 235,578.5 342.333,577 362.667,482.778 294.175,472.67 		"/>
		<polyline clip-path="url(#SVGID_5_)" fill="none" stroke="#FFFFFF" stroke-width="0.5" stroke-miterlimit="10" points="
			407.376,599.547 341,577 307.669,677.93 		"/>
		<g opacity="0.7" clip-path="url(#SVGID_5_)">
			<g>
				<defs>
					<rect id="SVGID_10_" x="519.053" y="310.955" width="58.876" height="164.238"/>
				</defs>
				<clipPath id="SVGID_11_">
					<use xlink:href="#SVGID_10_"  overflow="visible"/>
				</clipPath>
				<polyline clip-path="url(#SVGID_11_)" fill="none" stroke="#FFFFFF" stroke-width="0.5" stroke-miterlimit="10" points="
					519.211,475 577.666,426.98 565.666,310.981 				"/>
			</g>
		</g>
		<polyline clip-path="url(#SVGID_5_)" fill="none" stroke="#FFFFFF" stroke-width="0.5" stroke-miterlimit="10" points="
			166.903,722.102 41,710 204.667,649.98 		"/>
		<polyline clip-path="url(#SVGID_5_)" fill="none" stroke="#FFFFFF" stroke-width="0.5" stroke-miterlimit="10" points="
			102.667,596.333 235,577 172.667,441 		"/>
	</g>
</g>
</svg>
