<?xml version="1.0" encoding="utf-8"?>
<!-- Generator: Adobe Illustrator 15.0.0, SVG Export Plug-In . SVG Version: 6.00 Build 0)  -->
<!DOCTYPE svg PUBLIC "-//W3C//DTD SVG 1.1//EN" "http://www.w3.org/Graphics/SVG/1.1/DTD/svg11.dtd">
<svg version="1.1" id="Слой_1" xmlns="http://www.w3.org/2000/svg" xmlns:xlink="http://www.w3.org/1999/xlink" x="0px" y="0px"
	 width="800px" height="800px" viewBox="0 0 800 800" enable-background="new 0 0 800 800" xml:space="preserve">
<g>
	<g display="none">
		<defs>
			<rect id="SVGID_1_" x="0" y="0" width="800" height="800"/>
		</defs>
		<clipPath id="SVGID_2_" display="inline">
			<use xlink:href="#SVGID_1_"  overflow="visible"/>
		</clipPath>
		
			<linearGradient id="SVGID_3_" gradientUnits="userSpaceOnUse" x1="216.3718" y1="857.9875" x2="567.0691" y2="-105.5457" gradientTransform="matrix(1 0 0 -1 8.2798 776.2212)">
			<stop  offset="0" style="stop-color:#B76E79"/>
			<stop  offset="1" style="stop-color:#C5AE87"/>
		</linearGradient>
		<rect x="0" y="0" display="inline" clip-path="url(#SVGID_2_)" fill="url(#SVGID_3_)" width="800" height="800"/>
	</g>
	<g>
		<defs>
			<rect id="SVGID_4_" x="0" y="0" width="800" height="800"/>
		</defs>
		<clipPath id="SVGID_5_">
			<use xlink:href="#SVGID_4_"  overflow="visible"/>
		</clipPath>
		<g clip-path="url(#SVGID_5_)">
			<g>
				<defs>
					<rect id="SVGID_6_" x="0" y="0" width="800" height="800"/>
				</defs>
				<clipPath id="SVGID_7_">
					<use xlink:href="#SVGID_6_"  overflow="visible"/>
				</clipPath>
				<g clip-path="url(#SVGID_7_)">
					<g>
						<g opacity="0.7">
							<defs>
								<rect id="SVGID_8_" x="-25.884" y="0" opacity="0.7" width="836.42" height="811.319"/>
							</defs>
							<clipPath id="SVGID_9_">
								<use xlink:href="#SVGID_8_"  overflow="visible"/>
							</clipPath>
							<g clip-path="url(#SVGID_9_)">
								<g>
									<defs>
										<rect id="SVGID_10_" x="-1" y="0" width="800" height="800"/>
									</defs>
									<defs>
										<rect id="SVGID_11_" x="-1" y="0" width="800" height="800"/>
									</defs>
									<defs>
										<rect id="SVGID_12_" x="-1" y="0" width="800" height="800"/>
									</defs>
									<defs>
										<rect id="SVGID_13_" x="-1" y="0" width="800" height="800"/>
									</defs>
									<defs>
										<rect id="SVGID_14_" x="-1" y="0" width="800" height="800"/>
									</defs>
									<defs>
										<rect id="SVGID_15_" x="-1" y="0" width="800" height="800"/>
									</defs>
									<defs>
										<rect id="SVGID_16_" x="-1" y="0" width="800" height="800"/>
									</defs>
									<defs>
										<rect id="SVGID_17_" x="-1" y="0" width="800" height="800"/>
									</defs>
									<defs>
										<rect id="SVGID_18_" x="-1" y="0" width="800" height="800"/>
									</defs>
									<defs>
										<rect id="SVGID_19_" x="-1" y="0" width="800" height="800"/>
									</defs>
									<defs>
										<rect id="SVGID_20_" x="-1" y="0" width="800" height="800"/>
									</defs>
									<defs>
										<rect id="SVGID_21_" x="-1" y="0" width="800" height="800"/>
									</defs>
									<defs>
										<rect id="SVGID_22_" x="-1" y="0" width="800" height="800"/>
									</defs>
									<defs>
										<rect id="SVGID_23_" x="-1" y="0" width="800" height="800"/>
									</defs>
									<defs>
										<rect id="SVGID_24_" x="-1" y="0" width="800" height="800"/>
									</defs>
									<defs>
										<rect id="SVGID_25_" x="-1" y="0" width="800" height="800"/>
									</defs>
									<defs>
										<rect id="SVGID_26_" x="-1" y="0" width="800" height="800"/>
									</defs>
									<defs>
										<rect id="SVGID_27_" x="-1" y="0" width="800" height="800"/>
									</defs>
									<defs>
										<rect id="SVGID_28_" x="-1" y="0" width="800" height="800"/>
									</defs>
									<defs>
										<rect id="SVGID_29_" x="-1" y="0" width="800" height="800"/>
									</defs>
									<defs>
										<rect id="SVGID_30_" x="-1" y="0" width="800" height="800"/>
									</defs>
									<defs>
										<rect id="SVGID_31_" x="-1" y="0" width="800" height="800"/>
									</defs>
									<defs>
										<rect id="SVGID_32_" x="-1" y="0" width="800" height="800"/>
									</defs>
									<defs>
										<rect id="SVGID_33_" x="-1" y="0" width="800" height="800"/>
									</defs>
									<defs>
										<rect id="SVGID_34_" x="-1" y="0" width="800" height="800"/>
									</defs>
									<defs>
										<rect id="SVGID_35_" x="-1" y="0" width="800" height="800"/>
									</defs>
									<defs>
										<rect id="SVGID_36_" x="-1" y="0" width="800" height="800"/>
									</defs>
									<defs>
										<rect id="SVGID_37_" x="-1" y="0" width="800" height="800"/>
									</defs>
									<defs>
										<rect id="SVGID_38_" x="-1" y="0" width="800" height="800"/>
									</defs>
									<defs>
										<rect id="SVGID_39_" x="-1" y="0" width="800" height="800"/>
									</defs>
									<defs>
										<rect id="SVGID_40_" x="-1" y="0" width="800" height="800"/>
									</defs>
									<defs>
										<rect id="SVGID_41_" x="-1" y="0" width="800" height="800"/>
									</defs>
									<defs>
										<rect id="SVGID_42_" x="-1" y="0" width="800" height="800"/>
									</defs>
									<defs>
										<rect id="SVGID_43_" x="-1" y="0" width="800" height="800"/>
									</defs>
									<defs>
										<rect id="SVGID_44_" x="-1" y="0" width="800" height="800"/>
									</defs>
									<defs>
										<rect id="SVGID_45_" x="-1" y="0" width="800" height="800"/>
									</defs>
									<defs>
										<rect id="SVGID_46_" x="-1" y="0" width="800" height="800"/>
									</defs>
									<defs>
										<rect id="SVGID_47_" x="-1" y="0" width="800" height="800"/>
									</defs>
									<defs>
										<rect id="SVGID_48_" x="-1" y="0" width="800" height="800"/>
									</defs>
									<defs>
										<rect id="SVGID_49_" x="-1" y="0" width="800" height="800"/>
									</defs>
									<defs>
										<rect id="SVGID_50_" x="-1" y="0" width="800" height="800"/>
									</defs>
									<defs>
										<rect id="SVGID_51_" x="-1" y="0" width="800" height="800"/>
									</defs>
									<defs>
										<rect id="SVGID_52_" x="-1" y="0" width="800" height="800"/>
									</defs>
									<defs>
										<rect id="SVGID_53_" x="-1" y="0" width="800" height="800"/>
									</defs>
									<defs>
										<rect id="SVGID_54_" x="-1" y="0" width="800" height="800"/>
									</defs>
									<defs>
										<rect id="SVGID_55_" x="-1" y="0" width="800" height="800"/>
									</defs>
									<defs>
										<rect id="SVGID_56_" x="-1" y="0" width="800" height="800"/>
									</defs>
									<defs>
										<rect id="SVGID_57_" x="-1" y="0" width="800" height="800"/>
									</defs>
									<defs>
										<rect id="SVGID_58_" x="-1" y="0" width="800" height="800"/>
									</defs>
									<defs>
										<rect id="SVGID_59_" x="-1" y="0" width="800" height="800"/>
									</defs>
									<defs>
										<rect id="SVGID_60_" x="-1" y="0" width="800" height="800"/>
									</defs>
									<defs>
										<rect id="SVGID_61_" x="-1" y="0" width="800" height="800"/>
									</defs>
									<defs>
										<rect id="SVGID_62_" x="-1" y="0" width="800" height="800"/>
									</defs>
									<defs>
										<rect id="SVGID_63_" x="-1" y="0" width="800" height="800"/>
									</defs>
									<defs>
										<rect id="SVGID_64_" x="-1" y="0" width="800" height="800"/>
									</defs>
									<defs>
										<rect id="SVGID_65_" x="-1" y="0" width="800" height="800"/>
									</defs>
									<defs>
										<rect id="SVGID_66_" x="-1" y="0" width="800" height="800"/>
									</defs>
									<defs>
										<rect id="SVGID_67_" x="-1" y="0" width="800" height="800"/>
									</defs>
									<defs>
										<rect id="SVGID_68_" x="-1" y="0" width="800" height="800"/>
									</defs>
									<defs>
										<rect id="SVGID_69_" x="-1" y="0" width="800" height="800"/>
									</defs>
									<defs>
										<rect id="SVGID_70_" x="-1" y="0" width="800" height="800"/>
									</defs>
									<defs>
										<rect id="SVGID_71_" x="-1" y="0" width="800" height="800"/>
									</defs>
									<defs>
										<rect id="SVGID_72_" x="-1" y="0" width="800" height="800"/>
									</defs>
									<defs>
										<rect id="SVGID_73_" x="-1" y="0" width="800" height="800"/>
									</defs>
									<defs>
										<rect id="SVGID_74_" x="-1" y="0" width="800" height="800"/>
									</defs>
									<defs>
										<rect id="SVGID_75_" x="-1" y="0" width="800" height="800"/>
									</defs>
									<defs>
										<rect id="SVGID_76_" x="-1" y="0" width="800" height="800"/>
									</defs>
									<defs>
										<rect id="SVGID_77_" x="-1" y="0" width="800" height="800"/>
									</defs>
									<defs>
										<rect id="SVGID_78_" x="-1" y="0" width="800" height="800"/>
									</defs>
									<defs>
										<rect id="SVGID_79_" x="-1" y="0" width="800" height="800"/>
									</defs>
									<clipPath id="SVGID_80_">
										<use xlink:href="#SVGID_10_"  overflow="visible"/>
									</clipPath>
									<clipPath id="SVGID_81_" clip-path="url(#SVGID_80_)">
										<use xlink:href="#SVGID_11_"  overflow="visible"/>
									</clipPath>
									<clipPath id="SVGID_82_" clip-path="url(#SVGID_81_)">
										<use xlink:href="#SVGID_12_"  overflow="visible"/>
									</clipPath>
									<clipPath id="SVGID_83_" clip-path="url(#SVGID_82_)">
										<use xlink:href="#SVGID_13_"  overflow="visible"/>
									</clipPath>
									<clipPath id="SVGID_84_" clip-path="url(#SVGID_83_)">
										<use xlink:href="#SVGID_14_"  overflow="visible"/>
									</clipPath>
									<clipPath id="SVGID_85_" clip-path="url(#SVGID_84_)">
										<use xlink:href="#SVGID_15_"  overflow="visible"/>
									</clipPath>
									<clipPath id="SVGID_86_" clip-path="url(#SVGID_85_)">
										<use xlink:href="#SVGID_16_"  overflow="visible"/>
									</clipPath>
									<clipPath id="SVGID_87_" clip-path="url(#SVGID_86_)">
										<use xlink:href="#SVGID_17_"  overflow="visible"/>
									</clipPath>
									<clipPath id="SVGID_88_" clip-path="url(#SVGID_87_)">
										<use xlink:href="#SVGID_18_"  overflow="visible"/>
									</clipPath>
									<clipPath id="SVGID_89_" clip-path="url(#SVGID_88_)">
										<use xlink:href="#SVGID_19_"  overflow="visible"/>
									</clipPath>
									<clipPath id="SVGID_90_" clip-path="url(#SVGID_89_)">
										<use xlink:href="#SVGID_20_"  overflow="visible"/>
									</clipPath>
									<clipPath id="SVGID_91_" clip-path="url(#SVGID_90_)">
										<use xlink:href="#SVGID_21_"  overflow="visible"/>
									</clipPath>
									<clipPath id="SVGID_92_" clip-path="url(#SVGID_91_)">
										<use xlink:href="#SVGID_22_"  overflow="visible"/>
									</clipPath>
									<clipPath id="SVGID_93_" clip-path="url(#SVGID_92_)">
										<use xlink:href="#SVGID_23_"  overflow="visible"/>
									</clipPath>
									<clipPath id="SVGID_94_" clip-path="url(#SVGID_93_)">
										<use xlink:href="#SVGID_24_"  overflow="visible"/>
									</clipPath>
									<clipPath id="SVGID_95_" clip-path="url(#SVGID_94_)">
										<use xlink:href="#SVGID_25_"  overflow="visible"/>
									</clipPath>
									<clipPath id="SVGID_96_" clip-path="url(#SVGID_95_)">
										<use xlink:href="#SVGID_26_"  overflow="visible"/>
									</clipPath>
									<clipPath id="SVGID_97_" clip-path="url(#SVGID_96_)">
										<use xlink:href="#SVGID_27_"  overflow="visible"/>
									</clipPath>
									<clipPath id="SVGID_98_" clip-path="url(#SVGID_97_)">
										<use xlink:href="#SVGID_28_"  overflow="visible"/>
									</clipPath>
									<clipPath id="SVGID_99_" clip-path="url(#SVGID_98_)">
										<use xlink:href="#SVGID_29_"  overflow="visible"/>
									</clipPath>
									<clipPath id="SVGID_100_" clip-path="url(#SVGID_99_)">
										<use xlink:href="#SVGID_30_"  overflow="visible"/>
									</clipPath>
									<clipPath id="SVGID_101_" clip-path="url(#SVGID_100_)">
										<use xlink:href="#SVGID_31_"  overflow="visible"/>
									</clipPath>
									<clipPath id="SVGID_102_" clip-path="url(#SVGID_101_)">
										<use xlink:href="#SVGID_32_"  overflow="visible"/>
									</clipPath>
									<clipPath id="SVGID_103_" clip-path="url(#SVGID_102_)">
										<use xlink:href="#SVGID_33_"  overflow="visible"/>
									</clipPath>
									<clipPath id="SVGID_104_" clip-path="url(#SVGID_103_)">
										<use xlink:href="#SVGID_34_"  overflow="visible"/>
									</clipPath>
									<clipPath id="SVGID_105_" clip-path="url(#SVGID_104_)">
										<use xlink:href="#SVGID_35_"  overflow="visible"/>
									</clipPath>
									<clipPath id="SVGID_106_" clip-path="url(#SVGID_105_)">
										<use xlink:href="#SVGID_36_"  overflow="visible"/>
									</clipPath>
									<clipPath id="SVGID_107_" clip-path="url(#SVGID_106_)">
										<use xlink:href="#SVGID_37_"  overflow="visible"/>
									</clipPath>
									<clipPath id="SVGID_108_" clip-path="url(#SVGID_107_)">
										<use xlink:href="#SVGID_38_"  overflow="visible"/>
									</clipPath>
									<clipPath id="SVGID_109_" clip-path="url(#SVGID_108_)">
										<use xlink:href="#SVGID_39_"  overflow="visible"/>
									</clipPath>
									<clipPath id="SVGID_110_" clip-path="url(#SVGID_109_)">
										<use xlink:href="#SVGID_40_"  overflow="visible"/>
									</clipPath>
									<clipPath id="SVGID_111_" clip-path="url(#SVGID_110_)">
										<use xlink:href="#SVGID_41_"  overflow="visible"/>
									</clipPath>
									<clipPath id="SVGID_112_" clip-path="url(#SVGID_111_)">
										<use xlink:href="#SVGID_42_"  overflow="visible"/>
									</clipPath>
									<clipPath id="SVGID_113_" clip-path="url(#SVGID_112_)">
										<use xlink:href="#SVGID_43_"  overflow="visible"/>
									</clipPath>
									<clipPath id="SVGID_114_" clip-path="url(#SVGID_113_)">
										<use xlink:href="#SVGID_44_"  overflow="visible"/>
									</clipPath>
									<clipPath id="SVGID_115_" clip-path="url(#SVGID_114_)">
										<use xlink:href="#SVGID_45_"  overflow="visible"/>
									</clipPath>
									<clipPath id="SVGID_116_" clip-path="url(#SVGID_115_)">
										<use xlink:href="#SVGID_46_"  overflow="visible"/>
									</clipPath>
									<clipPath id="SVGID_117_" clip-path="url(#SVGID_116_)">
										<use xlink:href="#SVGID_47_"  overflow="visible"/>
									</clipPath>
									<clipPath id="SVGID_118_" clip-path="url(#SVGID_117_)">
										<use xlink:href="#SVGID_48_"  overflow="visible"/>
									</clipPath>
									<clipPath id="SVGID_119_" clip-path="url(#SVGID_118_)">
										<use xlink:href="#SVGID_49_"  overflow="visible"/>
									</clipPath>
									<clipPath id="SVGID_120_" clip-path="url(#SVGID_119_)">
										<use xlink:href="#SVGID_50_"  overflow="visible"/>
									</clipPath>
									<clipPath id="SVGID_121_" clip-path="url(#SVGID_120_)">
										<use xlink:href="#SVGID_51_"  overflow="visible"/>
									</clipPath>
									<clipPath id="SVGID_122_" clip-path="url(#SVGID_121_)">
										<use xlink:href="#SVGID_52_"  overflow="visible"/>
									</clipPath>
									<clipPath id="SVGID_123_" clip-path="url(#SVGID_122_)">
										<use xlink:href="#SVGID_53_"  overflow="visible"/>
									</clipPath>
									<clipPath id="SVGID_124_" clip-path="url(#SVGID_123_)">
										<use xlink:href="#SVGID_54_"  overflow="visible"/>
									</clipPath>
									<clipPath id="SVGID_125_" clip-path="url(#SVGID_124_)">
										<use xlink:href="#SVGID_55_"  overflow="visible"/>
									</clipPath>
									<clipPath id="SVGID_126_" clip-path="url(#SVGID_125_)">
										<use xlink:href="#SVGID_56_"  overflow="visible"/>
									</clipPath>
									<clipPath id="SVGID_127_" clip-path="url(#SVGID_126_)">
										<use xlink:href="#SVGID_57_"  overflow="visible"/>
									</clipPath>
									<clipPath id="SVGID_128_" clip-path="url(#SVGID_127_)">
										<use xlink:href="#SVGID_58_"  overflow="visible"/>
									</clipPath>
									<clipPath id="SVGID_129_" clip-path="url(#SVGID_128_)">
										<use xlink:href="#SVGID_59_"  overflow="visible"/>
									</clipPath>
									<clipPath id="SVGID_130_" clip-path="url(#SVGID_129_)">
										<use xlink:href="#SVGID_60_"  overflow="visible"/>
									</clipPath>
									<clipPath id="SVGID_131_" clip-path="url(#SVGID_130_)">
										<use xlink:href="#SVGID_61_"  overflow="visible"/>
									</clipPath>
									<clipPath id="SVGID_132_" clip-path="url(#SVGID_131_)">
										<use xlink:href="#SVGID_62_"  overflow="visible"/>
									</clipPath>
									<clipPath id="SVGID_133_" clip-path="url(#SVGID_132_)">
										<use xlink:href="#SVGID_63_"  overflow="visible"/>
									</clipPath>
									<clipPath id="SVGID_134_" clip-path="url(#SVGID_133_)">
										<use xlink:href="#SVGID_64_"  overflow="visible"/>
									</clipPath>
									<clipPath id="SVGID_135_" clip-path="url(#SVGID_134_)">
										<use xlink:href="#SVGID_65_"  overflow="visible"/>
									</clipPath>
									<clipPath id="SVGID_136_" clip-path="url(#SVGID_135_)">
										<use xlink:href="#SVGID_66_"  overflow="visible"/>
									</clipPath>
									<clipPath id="SVGID_137_" clip-path="url(#SVGID_136_)">
										<use xlink:href="#SVGID_67_"  overflow="visible"/>
									</clipPath>
									<clipPath id="SVGID_138_" clip-path="url(#SVGID_137_)">
										<use xlink:href="#SVGID_68_"  overflow="visible"/>
									</clipPath>
									<clipPath id="SVGID_139_" clip-path="url(#SVGID_138_)">
										<use xlink:href="#SVGID_69_"  overflow="visible"/>
									</clipPath>
									<clipPath id="SVGID_140_" clip-path="url(#SVGID_139_)">
										<use xlink:href="#SVGID_70_"  overflow="visible"/>
									</clipPath>
									<clipPath id="SVGID_141_" clip-path="url(#SVGID_140_)">
										<use xlink:href="#SVGID_71_"  overflow="visible"/>
									</clipPath>
									<clipPath id="SVGID_142_" clip-path="url(#SVGID_141_)">
										<use xlink:href="#SVGID_72_"  overflow="visible"/>
									</clipPath>
									<clipPath id="SVGID_143_" clip-path="url(#SVGID_142_)">
										<use xlink:href="#SVGID_73_"  overflow="visible"/>
									</clipPath>
									<clipPath id="SVGID_144_" clip-path="url(#SVGID_143_)">
										<use xlink:href="#SVGID_74_"  overflow="visible"/>
									</clipPath>
									<clipPath id="SVGID_145_" clip-path="url(#SVGID_144_)">
										<use xlink:href="#SVGID_75_"  overflow="visible"/>
									</clipPath>
									<clipPath id="SVGID_146_" clip-path="url(#SVGID_145_)">
										<use xlink:href="#SVGID_76_"  overflow="visible"/>
									</clipPath>
									<clipPath id="SVGID_147_" clip-path="url(#SVGID_146_)">
										<use xlink:href="#SVGID_77_"  overflow="visible"/>
									</clipPath>
									<clipPath id="SVGID_148_" clip-path="url(#SVGID_147_)">
										<use xlink:href="#SVGID_78_"  overflow="visible"/>
									</clipPath>
									<clipPath id="SVGID_149_" clip-path="url(#SVGID_148_)">
										<use xlink:href="#SVGID_79_"  overflow="visible"/>
									</clipPath>
									<polygon clip-path="url(#SVGID_149_)" fill="none" stroke="#1D1D1B" stroke-width="0.5" stroke-miterlimit="10" points="
										660.228,734.932 651.233,657.549 731.258,735.775 									"/>
									<polygon clip-path="url(#SVGID_149_)" fill="none" stroke="#1D1D1B" stroke-width="0.5" stroke-miterlimit="10" points="
										651.233,657.549 675.723,591.366 731.257,735.775 									"/>
									<polygon clip-path="url(#SVGID_149_)" fill="none" stroke="#1D1D1B" stroke-width="0.5" stroke-miterlimit="10" points="
										346.907,811.07 287.416,768.682 263.728,811.07 									"/>
									<polygon clip-path="url(#SVGID_149_)" fill="none" stroke="#1D1D1B" stroke-width="0.5" stroke-miterlimit="10" points="
										354.128,811.07 374.691,752.646 287.416,768.682 346.906,811.07 									"/>
									<polygon clip-path="url(#SVGID_149_)" fill="none" stroke="#1D1D1B" stroke-width="0.5" stroke-miterlimit="10" points="
										535.442,776.758 579.183,692.9 611.094,758.484 									"/>
									<polygon clip-path="url(#SVGID_149_)" fill="none" stroke="#1D1D1B" stroke-width="0.5" stroke-miterlimit="10" points="
										660.228,734.932 651.233,657.549 611.094,758.484 									"/>
									<polygon clip-path="url(#SVGID_149_)" fill="none" stroke="#1D1D1B" stroke-width="0.5" stroke-miterlimit="10" points="
										579.183,692.9 651.233,657.549 611.094,758.484 									"/>
									<polygon clip-path="url(#SVGID_149_)" fill="none" stroke="#1D1D1B" stroke-width="0.5" stroke-miterlimit="10" points="
										785.936,501.672 744.558,384.865 808.353,452.368 									"/>
									<polygon clip-path="url(#SVGID_149_)" fill="none" stroke="#1D1D1B" stroke-width="0.5" stroke-miterlimit="10" points="
										810.07,385.82 744.558,384.865 808.353,452.368 810.07,447.439 									"/>
									<polygon clip-path="url(#SVGID_149_)" fill="none" stroke="#1D1D1B" stroke-width="0.5" stroke-miterlimit="10" points="
										374.691,752.646 376.447,684.521 419.38,695.15 									"/>
									<polygon clip-path="url(#SVGID_149_)" fill="none" stroke="#1D1D1B" stroke-width="0.5" stroke-miterlimit="10" points="
										376.448,684.521 419.38,695.15 421.525,640.109 									"/>
									<polygon clip-path="url(#SVGID_149_)" fill="none" stroke="#1D1D1B" stroke-width="0.5" stroke-miterlimit="10" points="
										535.442,776.758 579.183,692.9 518.42,668.387 									"/>
									<polygon clip-path="url(#SVGID_149_)" fill="none" stroke="#1D1D1B" stroke-width="0.5" stroke-miterlimit="10" points="
										541.92,811.07 535.441,776.757 490.303,811.07 									"/>
									<polygon clip-path="url(#SVGID_149_)" fill="none" stroke="#1D1D1B" stroke-width="0.5" stroke-miterlimit="10" points="
										785.936,501.672 744.558,384.865 705.934,487.245 									"/>
									<polygon clip-path="url(#SVGID_149_)" fill="none" stroke="#1D1D1B" stroke-width="0.5" stroke-miterlimit="10" points="
										518.42,668.387 579.183,692.9 577.696,598.143 									"/>
									<polygon clip-path="url(#SVGID_149_)" fill="none" stroke="#1D1D1B" stroke-width="0.5" stroke-miterlimit="10" points="
										579.183,692.9 651.233,657.549 577.696,598.143 									"/>
									<polygon clip-path="url(#SVGID_149_)" fill="none" stroke="#1D1D1B" stroke-width="0.5" stroke-miterlimit="10" points="
										651.233,657.549 675.723,591.366 577.696,598.143 									"/>
									<polygon clip-path="url(#SVGID_149_)" fill="none" stroke="#1D1D1B" stroke-width="0.5" stroke-miterlimit="10" points="
										508.668,565 579.183,509.666 577.696,598.143 									"/>
									<polygon clip-path="url(#SVGID_149_)" fill="none" stroke="#1D1D1B" stroke-width="0.5" stroke-miterlimit="10" points="
										360.267,811.07 462.85,755.459 374.691,752.646 354.128,811.07 									"/>
									<polygon clip-path="url(#SVGID_149_)" fill="none" stroke="#1D1D1B" stroke-width="0.5" stroke-miterlimit="10" points="
										475.409,811.07 462.85,755.459 360.267,811.07 									"/>
									<polygon clip-path="url(#SVGID_149_)" fill="none" stroke="#1D1D1B" stroke-width="0.5" stroke-miterlimit="10" points="
										374.691,752.646 419.38,695.15 462.85,755.46 									"/>
									<polygon clip-path="url(#SVGID_149_)" fill="none" stroke="#1D1D1B" stroke-width="0.5" stroke-miterlimit="10" points="
										490.303,811.07 535.442,776.757 462.85,755.459 475.408,811.07 									"/>
									<polygon clip-path="url(#SVGID_149_)" fill="none" stroke="#1D1D1B" stroke-width="0.5" stroke-miterlimit="10" points="
										535.442,776.758 518.42,668.387 462.85,755.459 									"/>
									<polygon clip-path="url(#SVGID_149_)" fill="none" stroke="#1D1D1B" stroke-width="0.5" stroke-miterlimit="10" points="
										248.632,811.07 165.818,721.534 179.334,811.07 									"/>
									<polygon clip-path="url(#SVGID_149_)" fill="none" stroke="#1D1D1B" stroke-width="0.5" stroke-miterlimit="10" points="
										263.728,811.07 287.415,768.682 165.818,721.534 248.632,811.07 									"/>
									<polygon clip-path="url(#SVGID_149_)" fill="none" stroke="#1D1D1B" stroke-width="0.5" stroke-miterlimit="10" points="
										810.07,285.563 809.938,284.941 744.558,384.866 810.07,385.819 									"/>
									<polygon clip-path="url(#SVGID_149_)" fill="none" stroke="#1D1D1B" stroke-width="0.5" stroke-miterlimit="10" points="
										287.416,768.682 374.691,752.646 307.045,676.159 									"/>
									<polygon clip-path="url(#SVGID_149_)" fill="none" stroke="#1D1D1B" stroke-width="0.5" stroke-miterlimit="10" points="
										374.691,752.646 376.447,684.521 307.045,676.159 									"/>
									<polygon clip-path="url(#SVGID_149_)" fill="none" stroke="#1D1D1B" stroke-width="0.5" stroke-miterlimit="10" points="
										462.85,755.459 419.38,695.15 484.282,625.595 									"/>
									<polygon clip-path="url(#SVGID_149_)" fill="none" stroke="#1D1D1B" stroke-width="0.5" stroke-miterlimit="10" points="
										462.85,755.459 518.42,668.387 484.282,625.595 									"/>
									<polygon clip-path="url(#SVGID_149_)" fill="none" stroke="#1D1D1B" stroke-width="0.5" stroke-miterlimit="10" points="
										419.38,695.15 421.525,640.109 484.282,625.595 									"/>
									<polygon clip-path="url(#SVGID_149_)" fill="none" stroke="#1D1D1B" stroke-width="0.5" stroke-miterlimit="10" points="
										421.525,640.109 406.169,598.99 484.282,625.595 									"/>
									<polygon clip-path="url(#SVGID_149_)" fill="none" stroke="#1D1D1B" stroke-width="0.5" stroke-miterlimit="10" points="
										406.169,598.99 508.668,565 484.282,625.594 									"/>
									<polygon clip-path="url(#SVGID_149_)" fill="none" stroke="#1D1D1B" stroke-width="0.5" stroke-miterlimit="10" points="
										518.42,668.387 577.696,598.143 484.282,625.595 									"/>
									<polygon clip-path="url(#SVGID_149_)" fill="none" stroke="#1D1D1B" stroke-width="0.5" stroke-miterlimit="10" points="
										508.668,565 577.696,598.143 484.282,625.595 									"/>
									<polygon clip-path="url(#SVGID_149_)" fill="none" stroke="#1D1D1B" stroke-width="0.5" stroke-miterlimit="10" points="
										577.696,598.143 675.723,591.366 648.764,539.666 									"/>
									<polygon clip-path="url(#SVGID_149_)" fill="none" stroke="#1D1D1B" stroke-width="0.5" stroke-miterlimit="10" points="
										577.696,598.143 579.183,509.666 648.764,539.666 									"/>
									<polygon clip-path="url(#SVGID_149_)" fill="none" stroke="#1D1D1B" stroke-width="0.5" stroke-miterlimit="10" points="
										675.723,591.366 705.934,487.245 648.764,539.666 									"/>
									<polygon clip-path="url(#SVGID_149_)" fill="none" stroke="#1D1D1B" stroke-width="0.5" stroke-miterlimit="10" points="
										287.416,768.682 307.045,676.159 203.527,648.566 									"/>
									<polygon clip-path="url(#SVGID_149_)" fill="none" stroke="#1D1D1B" stroke-width="0.5" stroke-miterlimit="10" points="
										165.818,721.534 287.416,768.682 203.528,648.566 									"/>
									<polygon clip-path="url(#SVGID_149_)" fill="none" stroke="#1D1D1B" stroke-width="0.5" stroke-miterlimit="10" points="
										614.393,261.293 744.558,384.866 733.161,278.414 									"/>
									<polygon clip-path="url(#SVGID_149_)" fill="none" stroke="#1D1D1B" stroke-width="0.5" stroke-miterlimit="10" points="
										744.558,384.865 809.938,284.942 733.161,278.413 									"/>
									<polygon clip-path="url(#SVGID_149_)" fill="none" stroke="#1D1D1B" stroke-width="0.5" stroke-miterlimit="10" points="
										809.938,284.942 731.443,195.66 733.161,278.414 									"/>
									<polygon clip-path="url(#SVGID_149_)" fill="none" stroke="#1D1D1B" stroke-width="0.5" stroke-miterlimit="10" points="
										731.443,195.66 614.393,261.293 733.161,278.413 									"/>
									<polygon clip-path="url(#SVGID_149_)" fill="none" stroke="#1D1D1B" stroke-width="0.5" stroke-miterlimit="10" points="
										810.07,210.09 731.443,195.66 809.938,284.942 810.07,284.843 									"/>
									<polygon clip-path="url(#SVGID_149_)" fill="none" stroke="#1D1D1B" stroke-width="0.5" stroke-miterlimit="10" points="
										579.183,509.666 648.764,539.666 687.992,403.625 									"/>
									<polygon clip-path="url(#SVGID_149_)" fill="none" stroke="#1D1D1B" stroke-width="0.5" stroke-miterlimit="10" points="
										579.183,509.666 576,425 687.992,403.625 									"/>
									<polygon clip-path="url(#SVGID_149_)" fill="none" stroke="#1D1D1B" stroke-width="0.5" stroke-miterlimit="10" points="
										648.764,539.666 705.934,487.245 687.992,403.625 									"/>
									<polygon clip-path="url(#SVGID_149_)" fill="none" stroke="#1D1D1B" stroke-width="0.5" stroke-miterlimit="10" points="
										615,261.87 744.558,384.866 687.992,403.625 									"/>
									<polygon clip-path="url(#SVGID_149_)" fill="none" stroke="#1D1D1B" stroke-width="0.5" stroke-miterlimit="10" points="
										705.934,487.245 744.558,384.865 687.992,403.625 									"/>
									<polygon clip-path="url(#SVGID_149_)" fill="none" stroke="#1D1D1B" stroke-width="0.5" stroke-miterlimit="10" points="
										810.07,167.344 737.403,115.327 731.443,195.66 810.07,210.09 									"/>
									<polygon clip-path="url(#SVGID_149_)" fill="none" stroke="#1D1D1B" stroke-width="0.5" stroke-miterlimit="10" points="
										810.07,811.07 810.07,790.783 806.489,783.198 749.058,811.07 									"/>
									<polygon clip-path="url(#SVGID_149_)" fill="none" stroke="#1D1D1B" stroke-width="0.5" stroke-miterlimit="10" points="
										749.058,811.07 806.489,783.198 731.258,735.775 733.762,811.07 									"/>
									<polygon clip-path="url(#SVGID_149_)" fill="none" stroke="#1D1D1B" stroke-width="0.5" stroke-miterlimit="10" points="
										731.258,735.775 806.488,783.198 789.101,619.816 									"/>
									<polygon clip-path="url(#SVGID_149_)" fill="none" stroke="#1D1D1B" stroke-width="0.5" stroke-miterlimit="10" points="
										731.258,735.775 675.723,591.366 789.101,619.816 									"/>
									<polygon clip-path="url(#SVGID_149_)" fill="none" stroke="#1D1D1B" stroke-width="0.5" stroke-miterlimit="10" points="
										810.07,645.946 789.101,619.816 806.489,783.198 810.07,780.809 									"/>
									<polygon clip-path="url(#SVGID_149_)" fill="none" stroke="#1D1D1B" stroke-width="0.5" stroke-miterlimit="10" points="
										675.723,591.366 705.934,487.245 789.101,619.816 									"/>
									<polygon clip-path="url(#SVGID_149_)" fill="none" stroke="#1D1D1B" stroke-width="0.5" stroke-miterlimit="10" points="
										810.07,631.587 789.101,619.815 810.07,645.946 									"/>
									<polygon clip-path="url(#SVGID_149_)" fill="none" stroke="#1D1D1B" stroke-width="0.5" stroke-miterlimit="10" points="
										810.07,615.178 789.101,619.816 810.07,631.587 									"/>
									<polygon clip-path="url(#SVGID_149_)" fill="none" stroke="#1D1D1B" stroke-width="0.5" stroke-miterlimit="10" points="
										705.934,487.245 785.936,501.672 789.101,619.816 									"/>
									<polygon clip-path="url(#SVGID_149_)" fill="none" stroke="#1D1D1B" stroke-width="0.5" stroke-miterlimit="10" points="
										785.936,501.672 808.353,452.368 789.101,619.817 									"/>
									<polygon clip-path="url(#SVGID_149_)" fill="none" stroke="#1D1D1B" stroke-width="0.5" stroke-miterlimit="10" points="
										810.07,454.946 808.353,452.368 789.101,619.816 810.07,615.178 									"/>
									<polygon clip-path="url(#SVGID_149_)" fill="none" stroke="#FFFFFF" stroke-width="0.5" stroke-miterlimit="10" points="
										635.198,811.07 654.497,805.411 535.442,776.757 541.92,811.07 									"/>
									<polygon clip-path="url(#SVGID_149_)" fill="none" stroke="#1D1D1B" stroke-width="0.5" stroke-miterlimit="10" points="
										535.442,776.758 611.094,758.484 654.497,805.411 									"/>
									<polygon clip-path="url(#SVGID_149_)" fill="none" stroke="#1D1D1B" stroke-width="0.5" stroke-miterlimit="10" points="
										611.094,758.484 660.228,734.932 654.497,805.411 									"/>
									<polygon clip-path="url(#SVGID_149_)" fill="none" stroke="#1D1D1B" stroke-width="0.5" stroke-miterlimit="10" points="
										660.228,734.932 731.258,735.775 654.497,805.41 									"/>
									<polygon clip-path="url(#SVGID_149_)" fill="none" stroke="#1D1D1B" stroke-width="0.5" stroke-miterlimit="10" points="
										733.762,811.07 731.258,735.775 654.497,805.411 689.201,811.07 									"/>
									<polygon clip-path="url(#SVGID_149_)" fill="none" stroke="#1D1D1B" stroke-width="0.5" stroke-miterlimit="10" points="
										136.268,811.07 61.184,782.943 87.011,811.07 									"/>
									<polyline clip-path="url(#SVGID_149_)" fill="none" stroke="#1D1D1B" stroke-width="0.5" stroke-miterlimit="10" points="
										165.818,721.534 61.184,782.943 38.667,710.334 -25.333,777.073 61.184,782.943 									"/>
									
										<line clip-path="url(#SVGID_149_)" fill="none" stroke="#1D1D1B" stroke-width="0.5" stroke-miterlimit="10" x1="38.667" y1="710.334" x2="-5.333" y2="643.666"/>
								</g>
							</g>
						</g>
						<g>
							<defs>
								<rect id="SVGID_150_" x="0" y="0" width="800" height="800"/>
							</defs>
							<defs>
								<rect id="SVGID_151_" x="0" y="0" width="800" height="800"/>
							</defs>
							<defs>
								<rect id="SVGID_152_" x="0" y="0" width="800" height="800"/>
							</defs>
							<defs>
								<rect id="SVGID_153_" x="0" y="0" width="800" height="800"/>
							</defs>
							<defs>
								<rect id="SVGID_154_" x="0" y="0" width="800" height="800"/>
							</defs>
							<defs>
								<rect id="SVGID_155_" x="0" y="0" width="800" height="800"/>
							</defs>
							<defs>
								<rect id="SVGID_156_" x="0" y="0" width="800" height="800"/>
							</defs>
							<defs>
								<rect id="SVGID_157_" x="0" y="0" width="800" height="800"/>
							</defs>
							<defs>
								<rect id="SVGID_158_" x="0" y="0" width="800" height="800"/>
							</defs>
							<defs>
								<rect id="SVGID_159_" x="0" y="0" width="800" height="800"/>
							</defs>
							<defs>
								<rect id="SVGID_160_" x="0" y="0" width="800" height="800"/>
							</defs>
							<defs>
								<rect id="SVGID_161_" x="0" y="0" width="800" height="800"/>
							</defs>
							<defs>
								<rect id="SVGID_162_" x="0" y="0" width="800" height="800"/>
							</defs>
							<defs>
								<rect id="SVGID_163_" x="0" y="0" width="800" height="800"/>
							</defs>
							<defs>
								<rect id="SVGID_164_" x="0" y="0" width="800" height="800"/>
							</defs>
							<defs>
								<rect id="SVGID_165_" x="0" y="0" width="800" height="800"/>
							</defs>
							<defs>
								<rect id="SVGID_166_" x="0" y="0" width="800" height="800"/>
							</defs>
							<defs>
								<rect id="SVGID_167_" x="0" y="0" width="800" height="800"/>
							</defs>
							<defs>
								<rect id="SVGID_168_" x="0" y="0" width="800" height="800"/>
							</defs>
							<defs>
								<rect id="SVGID_169_" x="0" y="0" width="800" height="800"/>
							</defs>
							<defs>
								<rect id="SVGID_170_" x="0" y="0" width="800" height="800"/>
							</defs>
							<defs>
								<rect id="SVGID_171_" x="0" y="0" width="800" height="800"/>
							</defs>
							<defs>
								<rect id="SVGID_172_" x="0" y="0" width="800" height="800"/>
							</defs>
							<clipPath id="SVGID_173_">
								<use xlink:href="#SVGID_150_"  overflow="visible"/>
							</clipPath>
							<clipPath id="SVGID_174_" clip-path="url(#SVGID_173_)">
								<use xlink:href="#SVGID_151_"  overflow="visible"/>
							</clipPath>
							<clipPath id="SVGID_175_" clip-path="url(#SVGID_174_)">
								<use xlink:href="#SVGID_152_"  overflow="visible"/>
							</clipPath>
							<clipPath id="SVGID_176_" clip-path="url(#SVGID_175_)">
								<use xlink:href="#SVGID_153_"  overflow="visible"/>
							</clipPath>
							<clipPath id="SVGID_177_" clip-path="url(#SVGID_176_)">
								<use xlink:href="#SVGID_154_"  overflow="visible"/>
							</clipPath>
							<clipPath id="SVGID_178_" clip-path="url(#SVGID_177_)">
								<use xlink:href="#SVGID_155_"  overflow="visible"/>
							</clipPath>
							<clipPath id="SVGID_179_" clip-path="url(#SVGID_178_)">
								<use xlink:href="#SVGID_156_"  overflow="visible"/>
							</clipPath>
							<clipPath id="SVGID_180_" clip-path="url(#SVGID_179_)">
								<use xlink:href="#SVGID_157_"  overflow="visible"/>
							</clipPath>
							<clipPath id="SVGID_181_" clip-path="url(#SVGID_180_)">
								<use xlink:href="#SVGID_158_"  overflow="visible"/>
							</clipPath>
							<clipPath id="SVGID_182_" clip-path="url(#SVGID_181_)">
								<use xlink:href="#SVGID_159_"  overflow="visible"/>
							</clipPath>
							<clipPath id="SVGID_183_" clip-path="url(#SVGID_182_)">
								<use xlink:href="#SVGID_160_"  overflow="visible"/>
							</clipPath>
							<clipPath id="SVGID_184_" clip-path="url(#SVGID_183_)">
								<use xlink:href="#SVGID_161_"  overflow="visible"/>
							</clipPath>
							<clipPath id="SVGID_185_" clip-path="url(#SVGID_184_)">
								<use xlink:href="#SVGID_162_"  overflow="visible"/>
							</clipPath>
							<clipPath id="SVGID_186_" clip-path="url(#SVGID_185_)">
								<use xlink:href="#SVGID_163_"  overflow="visible"/>
							</clipPath>
							<clipPath id="SVGID_187_" clip-path="url(#SVGID_186_)">
								<use xlink:href="#SVGID_164_"  overflow="visible"/>
							</clipPath>
							<clipPath id="SVGID_188_" clip-path="url(#SVGID_187_)">
								<use xlink:href="#SVGID_165_"  overflow="visible"/>
							</clipPath>
							<clipPath id="SVGID_189_" clip-path="url(#SVGID_188_)">
								<use xlink:href="#SVGID_166_"  overflow="visible"/>
							</clipPath>
							<clipPath id="SVGID_190_" clip-path="url(#SVGID_189_)">
								<use xlink:href="#SVGID_167_"  overflow="visible"/>
							</clipPath>
							<clipPath id="SVGID_191_" clip-path="url(#SVGID_190_)">
								<use xlink:href="#SVGID_168_"  overflow="visible"/>
							</clipPath>
							<clipPath id="SVGID_192_" clip-path="url(#SVGID_191_)">
								<use xlink:href="#SVGID_169_"  overflow="visible"/>
							</clipPath>
							<clipPath id="SVGID_193_" clip-path="url(#SVGID_192_)">
								<use xlink:href="#SVGID_170_"  overflow="visible"/>
							</clipPath>
							<clipPath id="SVGID_194_" clip-path="url(#SVGID_193_)">
								<use xlink:href="#SVGID_171_"  overflow="visible"/>
							</clipPath>
							<clipPath id="SVGID_195_" clip-path="url(#SVGID_194_)">
								<use xlink:href="#SVGID_172_"  overflow="visible"/>
							</clipPath>
							<path clip-path="url(#SVGID_195_)" fill="#1D1D1B" d="M581.136,426.981c0,1.915-1.555,3.469-3.469,3.469
								c-1.916,0-3.471-1.554-3.471-3.469c0-1.916,1.555-3.47,3.471-3.47C579.582,423.512,581.136,425.065,581.136,426.981"/>
							<path clip-path="url(#SVGID_195_)" fill="#1D1D1B" d="M515.136,563.981c0,1.915-1.555,3.469-3.469,3.469
								c-1.916,0-3.471-1.554-3.471-3.469c0-1.916,1.555-3.47,3.471-3.47C513.582,560.512,515.136,562.065,515.136,563.981"/>
							<path clip-path="url(#SVGID_195_)" fill="#1D1D1B" d="M653.136,657.981c0,1.915-1.555,3.469-3.469,3.469
								c-1.916,0-3.471-1.554-3.471-3.469c0-1.916,1.555-3.47,3.471-3.47C651.582,654.512,653.136,656.065,653.136,657.981"/>
							<path clip-path="url(#SVGID_195_)" fill="#1D1D1B" d="M423.136,695.981c0,1.915-1.555,3.469-3.469,3.469
								c-1.916,0-3.471-1.554-3.471-3.469c0-1.916,1.555-3.47,3.471-3.47C421.582,692.512,423.136,694.065,423.136,695.981"/>
							<path clip-path="url(#SVGID_195_)" fill="#1D1D1B" d="M171.136,721.981c0,1.915-1.555,3.469-3.47,3.469
								c-1.916,0-3.469-1.554-3.469-3.469c0-1.916,1.553-3.47,3.469-3.47C169.582,718.512,171.136,720.065,171.136,721.981"/>
							<path clip-path="url(#SVGID_195_)" fill="#1D1D1B" d="M44.136,710.981c0,1.915-1.555,3.469-3.47,3.469
								c-1.916,0-3.469-1.554-3.469-3.469c0-1.916,1.553-3.47,3.469-3.47C42.582,707.512,44.136,709.065,44.136,710.981"/>
							<path clip-path="url(#SVGID_195_)" fill="#1D1D1B" d="M737.136,194.981c0,1.915-1.555,3.47-3.469,3.47
								c-1.916,0-3.471-1.555-3.471-3.47c0-1.916,1.555-3.47,3.471-3.47C735.582,191.511,737.136,193.065,737.136,194.981"/>
							<path clip-path="url(#SVGID_195_)" fill="#1D1D1B" d="M523.136,474.981c0,1.915-1.555,3.469-3.469,3.469
								c-1.916,0-3.471-1.554-3.471-3.469c0-1.916,1.555-3.47,3.471-3.47C521.582,471.512,523.136,473.065,523.136,474.981"/>
							<path clip-path="url(#SVGID_195_)" fill="#1D1D1B" d="M208.136,649.981c0,1.915-1.555,3.469-3.47,3.469
								c-1.916,0-3.469-1.554-3.469-3.469c0-1.916,1.553-3.47,3.469-3.47C206.582,646.512,208.136,648.065,208.136,649.981"/>
							<path clip-path="url(#SVGID_195_)" fill="#1D1D1B" d="M176.136,440.981c0,1.915-1.555,3.469-3.47,3.469
								c-1.916,0-3.469-1.554-3.469-3.469c0-1.916,1.553-3.47,3.469-3.47C174.582,437.512,176.136,439.065,176.136,440.981"/>
							<path clip-path="url(#SVGID_195_)" fill="#1D1D1B" d="M106.136,597.981c0,1.915-1.555,3.469-3.47,3.469
								c-1.916,0-3.469-1.554-3.469-3.469c0-1.916,1.553-3.47,3.469-3.47C104.582,594.512,106.136,596.065,106.136,597.981"/>
							<path clip-path="url(#SVGID_195_)" fill="#1D1D1B" d="M239.136,577.981c0,1.915-1.555,3.469-3.47,3.469
								c-1.916,0-3.469-1.554-3.469-3.469c0-1.916,1.553-3.47,3.469-3.47C237.582,574.512,239.136,576.065,239.136,577.981"/>
							<path clip-path="url(#SVGID_195_)" fill="#1D1D1B" d="M345.136,575.981c0,1.915-1.555,3.469-3.469,3.469
								c-1.916,0-3.47-1.554-3.47-3.469c0-1.916,1.554-3.47,3.47-3.47C343.582,572.512,345.136,574.065,345.136,575.981"/>
							<path clip-path="url(#SVGID_195_)" fill="#1D1D1B" d="M297.136,471.981c0,1.915-1.555,3.469-3.47,3.469
								c-1.916,0-3.469-1.554-3.469-3.469c0-1.916,1.553-3.47,3.469-3.47C295.582,468.512,297.136,470.065,297.136,471.981"/>
							<path clip-path="url(#SVGID_195_)" fill="#1D1D1B" d="M366.136,481.981c0,1.915-1.555,3.469-3.469,3.469
								c-1.916,0-3.47-1.554-3.47-3.469c0-1.916,1.554-3.47,3.47-3.47C364.582,478.512,366.136,480.065,366.136,481.981"/>
							<path clip-path="url(#SVGID_195_)" fill="#1D1D1B" d="M490.136,407.981c0,1.915-1.555,3.47-3.469,3.47
								c-1.916,0-3.471-1.555-3.471-3.47c0-1.916,1.555-3.47,3.471-3.47C488.582,404.512,490.136,406.065,490.136,407.981"/>
							<path clip-path="url(#SVGID_195_)" fill="#1D1D1B" d="M692.136,402.981c0,1.915-1.555,3.47-3.469,3.47
								c-1.916,0-3.471-1.555-3.471-3.47c0-1.916,1.555-3.47,3.471-3.47C690.582,399.511,692.136,401.065,692.136,402.981"/>
							<path clip-path="url(#SVGID_195_)" fill="#1D1D1B" d="M749.136,384.981c0,1.915-1.555,3.47-3.469,3.47
								c-1.916,0-3.471-1.555-3.471-3.47c0-1.916,1.555-3.47,3.471-3.47C747.582,381.511,749.136,383.065,749.136,384.981"/>
							<path clip-path="url(#SVGID_195_)" fill="#1D1D1B" stroke="#FFFFFF" stroke-miterlimit="10" d="M569.136,310.981
								c0,1.915-1.555,3.47-3.469,3.47c-1.916,0-3.471-1.555-3.471-3.47c0-1.916,1.555-3.47,3.471-3.47
								C567.582,307.511,569.136,309.065,569.136,310.981"/>
							<polyline clip-path="url(#SVGID_195_)" fill="none" stroke="#1D1D1B" stroke-width="0.5" stroke-miterlimit="10" points="
								510.978,563.972 519.212,475 362.668,482.278 486.399,408.027 							"/>
							<polyline clip-path="url(#SVGID_195_)" fill="none" stroke="#1D1D1B" stroke-width="0.5" stroke-miterlimit="10" points="
								205.355,650.502 235,578.5 342.334,577 362.668,482.778 294.175,472.67 							"/>
							<polyline clip-path="url(#SVGID_195_)" fill="none" stroke="#1D1D1B" stroke-width="0.5" stroke-miterlimit="10" points="
								407.377,599.547 341,577 307.67,677.93 							"/>
							<g clip-path="url(#SVGID_195_)">
								<g opacity="0.7">
									<g>
										<defs>
											<rect id="SVGID_196_" x="519.053" y="310.955" width="58.876" height="164.237"/>
										</defs>
										<clipPath id="SVGID_197_">
											<use xlink:href="#SVGID_196_"  overflow="visible"/>
										</clipPath>
										<polyline clip-path="url(#SVGID_197_)" fill="none" stroke="#1D1D1B" stroke-width="0.5" stroke-miterlimit="10" points="
											519.212,475 577.666,426.98 565.666,310.981 										"/>
									</g>
								</g>
								<g>
									<defs>
										<rect id="SVGID_198_" x="0" y="0" width="800" height="800"/>
									</defs>
									<defs>
										<rect id="SVGID_199_" x="0" y="0" width="800" height="800"/>
									</defs>
									<clipPath id="SVGID_200_">
										<use xlink:href="#SVGID_198_"  overflow="visible"/>
									</clipPath>
									<clipPath id="SVGID_201_" clip-path="url(#SVGID_200_)">
										<use xlink:href="#SVGID_199_"  overflow="visible"/>
									</clipPath>
									<polyline clip-path="url(#SVGID_201_)" fill="none" stroke="#1D1D1B" stroke-width="0.5" stroke-miterlimit="10" points="
										166.903,722.102 41,710 204.667,649.98 									"/>
									<polyline clip-path="url(#SVGID_201_)" fill="none" stroke="#1D1D1B" stroke-width="0.5" stroke-miterlimit="10" points="
										102.667,596.332 235,577 172.667,441 									"/>
								</g>
							</g>
						</g>
					</g>
				</g>
			</g>
		</g>
	</g>
</g>
</svg>
