<?xml version="1.0" encoding="utf-8"?>
<!-- Generator: Adobe Illustrator 15.0.0, SVG Export Plug-In . SVG Version: 6.00 Build 0)  -->
<!DOCTYPE svg PUBLIC "-//W3C//DTD SVG 1.1//EN" "http://www.w3.org/Graphics/SVG/1.1/DTD/svg11.dtd">
<svg version="1.1" xmlns="http://www.w3.org/2000/svg" xmlns:xlink="http://www.w3.org/1999/xlink" x="0px" y="0px" width="600px"
	 height="600px" viewBox="0 0 600 600" enable-background="new 0 0 600 600" xml:space="preserve">
<g id="Layer_1">
	<g>
		<defs>
			<rect id="SVGID_1_" x="0" width="600" height="600"/>
		</defs>
		<clipPath id="SVGID_2_">
			<use xlink:href="#SVGID_1_"  overflow="visible"/>
		</clipPath>
		<linearGradient id="SVGID_3_" gradientUnits="userSpaceOnUse" x1="399.4346" y1="426.5596" x2="456.1294" y2="504.6197">
			<stop  offset="0" style="stop-color:#FFFFFF"/>
			<stop  offset="1" style="stop-color:#FFFFFF;stop-opacity:0"/>
		</linearGradient>
		<polygon clip-path="url(#SVGID_2_)" fill="url(#SVGID_3_)" points="465.396,361.034 515.686,448.139 565.975,535.241 
			465.396,535.241 364.816,535.241 415.105,448.139 		"/>
		<linearGradient id="SVGID_4_" gradientUnits="userSpaceOnUse" x1="304.5713" y1="303.8584" x2="452.6653" y2="690.2186">
			<stop  offset="0" style="stop-color:#FFFFFF"/>
			<stop  offset="1" style="stop-color:#FFFFFF;stop-opacity:0"/>
		</linearGradient>
		<polygon opacity="0.3" clip-path="url(#SVGID_2_)" fill="url(#SVGID_4_)" points="425.83,257.38 530.574,438.794 635.314,620.209 
			425.83,620.209 216.347,620.209 321.086,438.794 		"/>
		
			<linearGradient id="SVGID_5_" gradientUnits="userSpaceOnUse" x1="1175.1748" y1="-660.7603" x2="1323.2692" y2="-274.3991" gradientTransform="matrix(0 -1 1 0 951.6553 1735.2266)">
			<stop  offset="0" style="stop-color:#FFFFFF"/>
			<stop  offset="1" style="stop-color:#FFFFFF;stop-opacity:0"/>
		</linearGradient>
		<polygon opacity="0.3" clip-path="url(#SVGID_2_)" fill="url(#SVGID_5_)" points="244.416,438.793 425.83,334.049 607.246,229.31 
			607.246,438.793 607.246,648.275 425.83,543.537 		"/>
		
			<radialGradient id="SVGID_6_" cx="353.3281" cy="322.3779" r="353.9886" gradientTransform="matrix(1.3229 0 0 1.3229 -95.9732 -78.8462)" gradientUnits="userSpaceOnUse">
			<stop  offset="0" style="stop-color:#FFFFFF"/>
			<stop  offset="1" style="stop-color:#E6E6E6"/>
		</radialGradient>
		<rect x="0" clip-path="url(#SVGID_2_)" fill="url(#SVGID_6_)" width="600" height="600"/>
		
			<radialGradient id="SVGID_7_" cx="402.1797" cy="403.0557" r="162.8193" gradientTransform="matrix(1.3229 0 0 1.3229 -95.9732 -78.8462)" gradientUnits="userSpaceOnUse">
			<stop  offset="0" style="stop-color:#000000"/>
			<stop  offset="1" style="stop-color:#FFFFFF;stop-opacity:0"/>
		</radialGradient>
		<circle clip-path="url(#SVGID_2_)" fill="url(#SVGID_7_)" cx="436.071" cy="454.354" r="215.394"/>
		<linearGradient id="SVGID_8_" gradientUnits="userSpaceOnUse" x1="136.0225" y1="391.7461" x2="209.1934" y2="582.6406">
			<stop  offset="0" style="stop-color:#C6AE88"/>
			<stop  offset="1" style="stop-color:#B76E87"/>
		</linearGradient>
		<polygon clip-path="url(#SVGID_2_)" fill="url(#SVGID_8_)" points="195.936,368.781 247.685,458.414 299.436,548.05 
			195.936,548.05 92.434,548.05 144.186,458.414 		"/>
		<linearGradient id="SVGID_9_" gradientUnits="userSpaceOnUse" x1="446.8809" y1="119.7021" x2="465.0275" y2="167.0446">
			<stop  offset="0" style="stop-color:#8E8E8E"/>
			<stop  offset="1" style="stop-color:#4D4D4D"/>
		</linearGradient>
		<polygon clip-path="url(#SVGID_2_)" fill="url(#SVGID_9_)" points="461.74,114.007 474.574,136.236 487.408,158.466 
			461.74,158.466 436.07,158.466 448.906,136.236 		"/>
		
			<linearGradient id="SVGID_10_" gradientUnits="userSpaceOnUse" x1="855.7422" y1="-2346.1226" x2="1010.4492" y2="-1942.5098" gradientTransform="matrix(0.5041 -0.8637 0.3687 0.2152 365.5838 1475.1515)">
			<stop  offset="0" style="stop-color:#E7E7E7"/>
			<stop  offset="1" style="stop-color:#FFFFFF;stop-opacity:0"/>
		</linearGradient>
		<polygon display="none" opacity="0.8" clip-path="url(#SVGID_2_)" fill="url(#SVGID_10_)" points="222.966,-160.337 
			-187.798,543.483 -132.268,575.896 278.497,-127.928 		"/>
		
			<linearGradient id="SVGID_11_" gradientUnits="userSpaceOnUse" x1="841.2676" y1="1501.6729" x2="936.5229" y2="1153.726" gradientTransform="matrix(0.5036 0.4023 -0.8639 0.2335 1001.486 -150.0615)">
			<stop  offset="0" style="stop-color:#E7E7E7"/>
			<stop  offset="1" style="stop-color:#FFFFFF;stop-opacity:0"/>
		</linearGradient>
		<polygon display="none" clip-path="url(#SVGID_2_)" fill="url(#SVGID_11_)" points="707.465,515.625 -107.454,514.752 
			-107.462,520.018 707.457,520.891 		"/>
		<linearGradient id="SVGID_12_" gradientUnits="userSpaceOnUse" x1="203.9043" y1="257.1162" x2="615.7188" y2="257.1162">
			<stop  offset="0" style="stop-color:#FFFFFF"/>
			<stop  offset="1" style="stop-color:#FFFFFF;stop-opacity:0"/>
		</linearGradient>
		<polygon clip-path="url(#SVGID_2_)" fill="url(#SVGID_12_)" points="409.809,78.796 512.764,257.117 615.719,435.437 
			409.809,435.437 203.904,435.437 306.857,257.117 		"/>
		<linearGradient id="SVGID_13_" gradientUnits="userSpaceOnUse" x1="483.1367" y1="338.6133" x2="519.0479" y2="432.3015">
			<stop  offset="0" style="stop-color:#808080"/>
			<stop  offset="1" style="stop-color:#B3B3B3;stop-opacity:0"/>
		</linearGradient>
		<polygon clip-path="url(#SVGID_2_)" fill="url(#SVGID_13_)" points="512.535,327.345 537.938,371.334 563.34,415.324 
			512.535,415.324 461.74,415.324 487.143,371.334 		"/>
		<linearGradient id="SVGID_14_" gradientUnits="userSpaceOnUse" x1="280.3472" y1="309.0068" x2="387.7561" y2="589.2245">
			<stop  offset="0" style="stop-color:#B76E79"/>
			<stop  offset="1" style="stop-color:#C6AE88;stop-opacity:0"/>
		</linearGradient>
		<polygon clip-path="url(#SVGID_2_)" fill="url(#SVGID_14_)" points="368.279,275.302 444.258,406.875 520.234,538.445 
			368.279,538.445 216.351,538.445 292.329,406.875 		"/>
		<polygon clip-path="url(#SVGID_2_)" fill="none" stroke="#A5A5A5" stroke-width="3" stroke-miterlimit="10" points="
			404.389,204.221 498.162,366.637 591.934,529.056 404.389,529.056 216.845,529.056 310.617,366.637 		"/>
		<linearGradient id="SVGID_15_" gradientUnits="userSpaceOnUse" x1="319.415" y1="299.4082" x2="429.8159" y2="587.4315">
			<stop  offset="0.0424" style="stop-color:#C6AE88"/>
			<stop  offset="1" style="stop-color:#B76E79"/>
		</linearGradient>
		<path clip-path="url(#SVGID_2_)" fill="url(#SVGID_15_)" d="M487.893,400l-78.08-135.241L331.73,400l-78.083,135.241h156.165
			h156.162L487.893,400z M284.622,515.033l62.595-108.418l62.596-108.418l62.596,108.418l62.594,108.418H409.813H284.622z"/>
		<linearGradient id="SVGID_16_" gradientUnits="userSpaceOnUse" x1="279.5718" y1="287.3052" x2="350.6763" y2="472.8087">
			<stop  offset="0" style="stop-color:#DFDFDF"/>
			<stop  offset="1" style="stop-color:#B4B4B4"/>
		</linearGradient>
		<polygon clip-path="url(#SVGID_2_)" fill="url(#SVGID_16_)" points="337.793,264.989 388.082,352.093 438.371,439.195 
			337.793,439.195 237.213,439.195 287.502,352.093 		"/>
		<linearGradient id="SVGID_17_" gradientUnits="userSpaceOnUse" x1="447.9277" y1="275.6602" x2="488.5355" y2="381.6012">
			<stop  offset="0" style="stop-color:#FFFFFF"/>
			<stop  offset="1" style="stop-color:#FFFFFF;stop-opacity:0"/>
		</linearGradient>
		<polygon clip-path="url(#SVGID_2_)" fill="url(#SVGID_17_)" points="481.178,262.915 509.898,312.661 538.619,362.404 
			481.178,362.404 423.736,362.404 452.457,312.661 		"/>
		<linearGradient id="SVGID_18_" gradientUnits="userSpaceOnUse" x1="213.085" y1="413.3496" x2="231.248" y2="460.7349">
			<stop  offset="0" style="stop-color:#CCCCCC"/>
			<stop  offset="1" style="stop-color:#FFFFFF;stop-opacity:0"/>
		</linearGradient>
		<polygon clip-path="url(#SVGID_2_)" fill="url(#SVGID_18_)" points="227.957,407.649 240.803,429.899 253.648,452.148 
			227.957,452.148 202.266,452.148 215.111,429.899 		"/>
		<linearGradient id="SVGID_19_" gradientUnits="userSpaceOnUse" x1="437.3506" y1="467.7344" x2="479.9779" y2="578.9442">
			<stop  offset="0" style="stop-color:#CCCCCC"/>
			<stop  offset="1" style="stop-color:#FFFFFF;stop-opacity:0"/>
		</linearGradient>
		<polygon clip-path="url(#SVGID_2_)" fill="url(#SVGID_19_)" points="472.256,454.354 502.402,506.574 532.551,558.793 
			472.256,558.793 411.957,558.793 442.107,506.574 		"/>
		<linearGradient id="SVGID_20_" gradientUnits="userSpaceOnUse" x1="235.6636" y1="416.1201" x2="242.1137" y2="432.9478">
			<stop  offset="0" style="stop-color:#CCCCCC"/>
			<stop  offset="1" style="stop-color:#DEDEDE;stop-opacity:0"/>
		</linearGradient>
		<polygon clip-path="url(#SVGID_2_)" fill="url(#SVGID_20_)" points="240.945,414.097 245.508,421.998 250.069,429.899 
			240.945,429.899 231.821,429.899 236.383,421.998 		"/>
		<linearGradient id="SVGID_21_" gradientUnits="userSpaceOnUse" x1="525.4482" y1="250.7305" x2="530.3902" y2="263.6234">
			<stop  offset="0" style="stop-color:#CCCCCC"/>
			<stop  offset="1" style="stop-color:#DEDEDE;stop-opacity:0"/>
		</linearGradient>
		<polygon clip-path="url(#SVGID_2_)" fill="url(#SVGID_21_)" points="529.494,249.18 532.99,255.233 536.486,261.287 
			529.494,261.287 522.504,261.287 526,255.233 		"/>
		<linearGradient id="SVGID_22_" gradientUnits="userSpaceOnUse" x1="455.8496" y1="179.8364" x2="475.8826" y2="232.1003">
			<stop  offset="0" style="stop-color:#F4F4F4"/>
			<stop  offset="1" style="stop-color:#FFFFFF;stop-opacity:0"/>
		</linearGradient>
		<polygon clip-path="url(#SVGID_2_)" fill="url(#SVGID_22_)" points="472.254,173.549 486.422,198.089 500.59,222.63 
			472.254,222.63 443.916,222.63 458.086,198.089 		"/>
		<linearGradient id="SVGID_23_" gradientUnits="userSpaceOnUse" x1="270.9482" y1="393.0977" x2="331.7376" y2="551.6901">
			<stop  offset="0" style="stop-color:#DFDFDF"/>
			<stop  offset="1" style="stop-color:#B76E79"/>
		</linearGradient>
		<polygon opacity="0.6" clip-path="url(#SVGID_2_)" fill="url(#SVGID_23_)" points="320.723,374.019 363.715,448.487 
			406.709,522.953 320.723,522.953 234.736,522.953 277.73,448.487 		"/>
		<linearGradient id="SVGID_24_" gradientUnits="userSpaceOnUse" x1="413.1143" y1="240.4521" x2="484.5498" y2="426.8192">
			<stop  offset="0" style="stop-color:#C6AE88"/>
			<stop  offset="1" style="stop-color:#BCBBBB"/>
		</linearGradient>
		<polygon clip-path="url(#SVGID_2_)" fill="url(#SVGID_24_)" points="471.605,218.032 522.129,305.54 572.652,393.049 
			471.605,393.049 370.559,393.049 421.084,305.54 		"/>
		
			<polygon opacity="0.3" clip-path="url(#SVGID_2_)" fill="none" stroke="#B3B3B3" stroke-width="3" stroke-miterlimit="10" points="
			287.034,410.941 322.377,472.157 357.723,533.376 287.034,533.376 216.347,533.376 251.691,472.157 		"/>
		<polygon clip-path="url(#SVGID_2_)" fill="none" stroke="#B3B3B3" stroke-width="3" stroke-miterlimit="10" points="
			435.504,318.646 507.891,444.019 580.275,569.396 435.504,569.396 290.733,569.396 363.119,444.019 		"/>
		<polygon clip-path="url(#SVGID_2_)" fill="none" stroke="#B76E79" stroke-width="3" stroke-miterlimit="10" points="
			409.809,29.779 536.48,249.18 663.152,468.579 409.809,468.579 156.469,468.579 283.141,249.18 		"/>
		<polygon clip-path="url(#SVGID_2_)" fill="none" stroke="#C6AE88" stroke-width="3" stroke-miterlimit="10" points="
			409.807,-88.886 602.193,244.334 794.58,577.552 409.807,577.552 25.042,577.552 217.429,244.334 		"/>
		<g opacity="0.3" clip-path="url(#SVGID_2_)">
			<g>
				
					<line fill="none" stroke="#B3B3B3" stroke-width="2" stroke-miterlimit="10" x1="299.524" y1="860.005" x2="674.117" y2="236.092"/>
				<circle fill="#B3B3B3" cx="491.231" cy="540.701" r="8.625"/>
				<path fill="#B3B3B3" d="M378.639,734.351c0.553,2.209-0.793,4.449-3.004,5.002c-2.211,0.554-4.451-0.793-5.002-3.005
					c-0.555-2.209,0.791-4.449,3.002-5.002S378.086,732.139,378.639,734.351z"/>
			</g>
			<g>
				
					<line fill="none" stroke="#B3B3B3" stroke-width="2" stroke-miterlimit="10" x1="299.524" y1="860.005" x2="674.117" y2="236.092"/>
				<circle fill="none" stroke="#B3B3B3" stroke-width="2" stroke-miterlimit="10" cx="491.231" cy="540.701" r="8.625"/>
				<path fill="none" stroke="#B3B3B3" stroke-width="2" stroke-miterlimit="10" d="M378.639,734.351
					c0.553,2.209-0.793,4.449-3.004,5.002c-2.211,0.554-4.451-0.793-5.002-3.005c-0.555-2.209,0.791-4.449,3.002-5.002
					S378.086,732.139,378.639,734.351z"/>
			</g>
		</g>
		<polygon clip-path="url(#SVGID_2_)" fill="none" stroke="#B3B3B3" stroke-width="2" stroke-miterlimit="10" points="
			357.719,204.61 409.154,293.696 460.588,382.78 357.719,382.78 254.854,382.78 306.289,293.696 		"/>
		<polygon clip-path="url(#SVGID_2_)" fill="none" stroke="#B3B3B3" stroke-width="5" stroke-miterlimit="10" points="
			314.799,166.649 332.951,198.089 351.104,229.528 314.799,229.528 278.497,229.528 296.648,198.089 		"/>
		<polygon clip-path="url(#SVGID_2_)" fill="none" stroke="#868686" stroke-miterlimit="10" points="280.277,262.257 
			298.43,293.697 316.58,325.136 280.277,325.136 243.974,325.136 262.125,293.697 		"/>
		<polygon clip-path="url(#SVGID_2_)" fill="none" stroke="#B3B3B3" stroke-width="3" stroke-miterlimit="10" points="
			567.174,548.05 569.914,552.795 572.652,557.54 567.174,557.54 561.693,557.54 564.434,552.795 		"/>
		<polygon clip-path="url(#SVGID_2_)" fill="none" stroke="#A5A5A5" stroke-miterlimit="10" points="280.277,284.206 
			285.757,293.697 291.236,303.188 280.277,303.188 269.319,303.188 274.798,293.697 		"/>
		<polygon clip-path="url(#SVGID_2_)" fill="none" stroke="#B3B3B3" stroke-width="3" stroke-miterlimit="10" points="
			561.693,48.481 564.434,53.227 567.174,57.972 561.693,57.972 556.213,57.972 558.953,53.227 		"/>
		<polygon clip-path="url(#SVGID_2_)" fill="none" stroke="#B3B3B3" stroke-width="3" stroke-miterlimit="10" points="
			512.539,393.049 525.4,415.324 538.26,437.599 512.539,437.599 486.82,437.599 499.68,415.324 		"/>
		<polygon opacity="0.7" clip-path="url(#SVGID_2_)" fill="#B3B3B3" points="300,490.153 306.018,500.577 312.035,511 300,511 
			287.966,511 293.984,500.577 		"/>
		<polygon clip-path="url(#SVGID_2_)" fill="#A5A5A5" points="299.435,390.782 309.014,407.376 318.594,423.967 299.435,423.967 
			280.277,423.967 289.856,407.376 		"/>
		<circle display="none" clip-path="url(#SVGID_2_)" fill="#686868" cx="563.34" cy="312.661" r="161.332"/>
		<path display="none" opacity="0.5" clip-path="url(#SVGID_2_)" fill="#A5A5A5" d="M539.518,330.397
			c0,127.576-103.424,230.999-231,230.999c-127.58,0-231.001-103.423-231.001-230.999c0-127.58,103.421-231,231.001-231
			C436.094,99.397,539.518,202.817,539.518,330.397z"/>
	</g>
	<polyline fill="none" points="0,0 357,0 22,578.334 	"/>
	<path fill="none" d="M600,578.334"/>
</g>
<g id="Слой_2">
	<polygon fill="#FFFFFF" points="0,0 357,0 22,578.334 600,578.334 600,600 0,600 	"/>
</g>
</svg>
