<?xml version="1.0" encoding="utf-8"?>
<!-- Generator: Adobe Illustrator 15.0.0, SVG Export Plug-In . SVG Version: 6.00 Build 0)  -->
<!DOCTYPE svg PUBLIC "-//W3C//DTD SVG 1.1//EN" "http://www.w3.org/Graphics/SVG/1.1/DTD/svg11.dtd">
<svg version="1.1" id="Слой_1" xmlns="http://www.w3.org/2000/svg" xmlns:xlink="http://www.w3.org/1999/xlink" x="0px" y="0px"
	 width="500px" height="500px" viewBox="0 0 500 500" enable-background="new 0 0 500 500" xml:space="preserve">
<g>
	<polygon fill="#FFFFFF" stroke="#000000" stroke-width="2" stroke-miterlimit="10" points="416.021,430.599 239.686,495.102 
		69.396,416.017 4.894,239.688 83.978,69.396 260.314,4.898 430.602,83.979 495.106,260.31 	"/>
	<polygon fill="#FFFFFF" stroke="#000000" stroke-width="2" stroke-miterlimit="10" points="83.978,69.396 285.905,113.144 
		260.314,4.898 	"/>
	<polygon fill="#FFFFFF" stroke="#000000" stroke-width="2" stroke-miterlimit="10" points="430.602,83.979 285.905,113.144 
		260.314,4.898 	"/>
	<polygon fill="#FFFFFF" stroke="#000000" stroke-width="2" stroke-miterlimit="10" points="69.396,416.017 184.938,382.363 
		239.686,495.102 	"/>
	<polygon fill="#FFFFFF" stroke="#000000" stroke-width="2" stroke-miterlimit="10" points="416.021,430.599 239.686,495.102 
		312.826,398.822 	"/>
	<polygon fill="#FFFFFF" stroke="#000000" stroke-width="2" stroke-miterlimit="10" points="250,364.607 184.938,382.363 
		239.686,495.102 312.826,398.822 	"/>
	<polygon fill="#FFFFFF" stroke="#000000" stroke-width="2" stroke-miterlimit="10" points="416.021,430.599 378.635,298.616 
		495.106,260.31 	"/>
	<polygon fill="#FFFFFF" stroke="#000000" stroke-width="2" stroke-miterlimit="10" points="4.894,239.688 133.346,174.469 
		69.396,416.017 	"/>
	<polygon fill="#FFFFFF" stroke="#000000" stroke-width="2" stroke-miterlimit="10" points="184.938,382.363 91.849,331.22 
		260.314,265.707 	"/>
	<polygon fill="#FFFFFF" stroke="#000000" stroke-width="2" stroke-miterlimit="10" points="133.346,174.469 260.314,265.707 
		91.849,331.22 	"/>
	<polygon fill="#FFFFFF" stroke="#000000" stroke-width="2" stroke-miterlimit="10" points="83.978,69.396 285.905,113.144 
		133.346,174.469 	"/>
	<polygon fill="#FFFFFF" stroke="#000000" stroke-width="2" stroke-miterlimit="10" points="378.635,298.616 312.826,398.822 
		416.021,430.599 	"/>
	<polygon fill="#FFFFFF" stroke="#000000" stroke-width="2" stroke-miterlimit="10" points="260.314,265.707 285.905,113.144 
		133.346,174.469 	"/>
	<polygon fill="#FFFFFF" stroke="#000000" stroke-width="2" stroke-miterlimit="10" points="378.635,298.616 260.314,265.707 
		312.826,398.822 	"/>
	<polygon fill="#FFFFFF" stroke="#000000" stroke-width="2" stroke-miterlimit="10" points="430.602,83.979 378.635,298.616 
		495.106,260.31 	"/>
	<polygon fill="#FFFFFF" stroke="#000000" stroke-width="2" stroke-miterlimit="10" points="285.905,113.144 378.635,298.616 
		430.602,83.979 	"/>
</g>
</svg>
